<svg width="100%" height="60" viewBox="0 0 550 60" fill="none" xmlns="http://www.w3.org/2000/svg">
<rect width="100%" height="60" rx="4" fill="#F2F2F2"/>
<path fill-rule="evenodd" clip-rule="evenodd" d="M203.64 30.2042C203.64 29.566 203.583 28.9524 203.476 28.3633H195V31.8446H199.844C199.635 32.9696 199.001 33.9228 198.048 34.561V36.8192H200.956C202.658 35.2524 203.64 32.9451 203.64 30.2042Z" fill="#4285F4"/>
<path fill-rule="evenodd" clip-rule="evenodd" d="M195 39C197.43 39 199.467 38.1941 200.956 36.8195L198.047 34.5613C197.242 35.1013 196.211 35.4204 195 35.4204C192.656 35.4204 190.672 33.8372 189.964 31.71H186.957V34.0418C188.438 36.9831 191.482 39 195 39Z" fill="#34A853"/>
<path fill-rule="evenodd" clip-rule="evenodd" d="M189.964 31.7098C189.784 31.1698 189.682 30.593 189.682 29.9998C189.682 29.4066 189.784 28.8298 189.964 28.2898V25.958H186.957C186.348 27.173 186 28.5476 186 29.9998C186 31.4521 186.348 32.8266 186.957 34.0416L189.964 31.7098Z" fill="#FBBC05"/>
<path fill-rule="evenodd" clip-rule="evenodd" d="M195 24.5795C196.321 24.5795 197.507 25.0336 198.44 25.9255L201.022 23.3441C199.463 21.8918 197.426 21 195 21C191.482 21 188.438 23.0168 186.957 25.9582L189.964 28.29C190.672 26.1627 192.656 24.5795 195 24.5795Z" fill="#EA4335"/>
<path d="M221.362 38.252C217.744 38.252 214.972 35.84 214.972 31.394C214.972 27.002 217.816 24.446 221.362 24.446C223.27 24.446 224.602 25.274 225.466 26.138L224.062 27.848C223.396 27.218 222.64 26.732 221.452 26.732C219.22 26.732 217.69 28.46 217.69 31.304C217.69 34.22 219.022 35.948 221.632 35.948C222.28 35.948 222.928 35.768 223.306 35.462V32.834H220.93V30.656H225.682V36.65C224.782 37.55 223.198 38.252 221.362 38.252ZM232.536 38.252C229.998 38.252 227.694 36.308 227.694 32.978C227.694 29.63 229.998 27.686 232.536 27.686C235.056 27.686 237.36 29.63 237.36 32.978C237.36 36.308 235.056 38.252 232.536 38.252ZM232.536 36.11C233.904 36.11 234.66 34.868 234.66 32.978C234.66 31.07 233.904 29.846 232.536 29.846C231.15 29.846 230.394 31.07 230.394 32.978C230.394 34.868 231.15 36.11 232.536 36.11ZM243.804 38.252C241.266 38.252 238.962 36.308 238.962 32.978C238.962 29.63 241.266 27.686 243.804 27.686C246.324 27.686 248.628 29.63 248.628 32.978C248.628 36.308 246.324 38.252 243.804 38.252ZM243.804 36.11C245.172 36.11 245.928 34.868 245.928 32.978C245.928 31.07 245.172 29.846 243.804 29.846C242.418 29.846 241.662 31.07 241.662 32.978C241.662 34.868 242.418 36.11 243.804 36.11ZM254.388 42.374C252.03 42.374 250.194 41.564 250.194 39.8C250.194 38.954 250.698 38.216 251.634 37.712V37.622C251.112 37.28 250.716 36.74 250.716 35.912C250.716 35.156 251.22 34.472 251.85 34.04V33.968C251.148 33.464 250.482 32.51 250.482 31.322C250.482 28.946 252.426 27.686 254.55 27.686C255.126 27.686 255.666 27.776 256.08 27.938H259.716V29.882H257.988C258.258 30.224 258.456 30.782 258.456 31.394C258.456 33.68 256.728 34.814 254.55 34.814C254.154 34.814 253.704 34.742 253.254 34.58C252.984 34.832 252.822 35.048 252.822 35.462C252.822 35.984 253.236 36.29 254.406 36.29H256.134C258.564 36.29 259.896 37.028 259.896 38.81C259.896 40.844 257.754 42.374 254.388 42.374ZM254.55 33.194C255.432 33.194 256.134 32.51 256.134 31.322C256.134 30.134 255.45 29.486 254.55 29.486C253.668 29.486 252.966 30.134 252.966 31.322C252.966 32.51 253.668 33.194 254.55 33.194ZM254.802 40.7C256.314 40.7 257.34 40.034 257.34 39.26C257.34 38.54 256.746 38.342 255.666 38.342H254.442C253.83 38.342 253.416 38.306 253.056 38.198C252.588 38.576 252.39 38.972 252.39 39.386C252.39 40.232 253.326 40.7 254.802 40.7ZM264.084 38.252C262.23 38.252 261.6 37.046 261.6 35.174V23.654H264.246V35.282C264.246 35.912 264.516 36.11 264.768 36.11C264.858 36.11 264.93 36.11 265.11 36.074L265.434 38.036C265.128 38.144 264.714 38.252 264.084 38.252ZM271.669 38.252C268.843 38.252 266.647 36.308 266.647 32.978C266.647 29.702 268.951 27.686 271.327 27.686C274.117 27.686 275.539 29.702 275.539 32.492C275.539 32.996 275.485 33.464 275.431 33.716H269.203C269.437 35.372 270.517 36.218 272.011 36.218C272.821 36.218 273.541 35.966 274.279 35.516L275.161 37.154C274.171 37.838 272.911 38.252 271.669 38.252ZM269.167 31.952H273.289C273.289 30.584 272.677 29.72 271.381 29.72C270.319 29.72 269.383 30.476 269.167 31.952ZM277.052 35.822H292.136V37.766H277.052V35.822ZM283.37 32.672H285.764V36.614H283.37V32.672ZM278.744 24.014H290.444V29.558H281.156V32.366H278.78V27.686H288.068V25.904H278.744V24.014ZM278.78 31.412H290.822V33.338H278.78V31.412ZM301.739 24.212H303.683V26.642C303.683 30.926 302.207 34.796 298.895 36.326L297.473 34.346C300.371 33.086 301.739 29.882 301.739 26.642V24.212ZM302.207 24.212H304.151V26.642C304.151 29.72 305.465 32.78 308.309 34.004L306.905 35.93C303.683 34.454 302.207 30.746 302.207 26.642V24.212ZM309.101 22.916H311.513V39.638H309.101V22.916ZM317.938 24.644H319.9V25.688C319.9 28.838 318.406 31.664 315.22 32.69L313.978 30.836C316.768 29.936 317.938 27.776 317.938 25.688V24.644ZM318.424 24.644H320.368V25.688C320.368 27.65 321.502 29.684 324.202 30.548L322.978 32.402C319.864 31.394 318.424 28.676 318.424 25.688V24.644ZM314.626 23.906H323.626V25.814H314.626V23.906ZM324.958 22.934H327.352V32.978H324.958V22.934ZM326.686 26.966H329.566V28.928H326.686V26.966ZM316.228 33.698H327.352V39.602H324.958V35.624H316.228V33.698ZM341.48 22.934H343.856V39.602H341.48V22.934ZM343.316 29.432H346.268V31.43H343.316V29.432ZM330.716 25.4H340.418V27.308H330.716V25.4ZM335.594 28.244C338.024 28.244 339.824 29.9 339.824 32.222C339.824 34.544 338.024 36.2 335.594 36.2C333.164 36.2 331.364 34.544 331.364 32.222C331.364 29.9 333.164 28.244 335.594 28.244ZM335.594 30.188C334.46 30.188 333.65 30.944 333.65 32.222C333.65 33.5 334.46 34.256 335.594 34.256C336.728 34.256 337.538 33.5 337.538 32.222C337.538 30.944 336.728 30.188 335.594 30.188ZM334.388 23.204H336.782V26.12H334.388V23.204ZM358.831 22.934H361.243V39.602H358.831V22.934ZM353.917 24.662H356.293C356.293 29.756 354.565 33.932 348.643 36.794L347.401 34.886C352.189 32.582 353.917 29.558 353.917 25.094V24.662ZM348.283 24.662H355.051V26.552H348.283V24.662Z" fill="#1F1F1F"/>
</svg>
