<svg width="550" height="60" viewBox="0 0 550 60" fill="none" xmlns="http://www.w3.org/2000/svg">
<rect width="550" height="60" rx="6" fill="#FEE500"/>
<g clip-path="url(#clip0_499_7966)">
<path opacity="0.902" fill-rule="evenodd" clip-rule="evenodd" d="M199.5 21.9443C194.79 21.9443 190.5 25.7303 190.5 28.9333C190.5 31.3333 192.058 33.4503 194.431 34.7083L193.433 38.3743C193.344 38.6993 193.713 38.9573 193.996 38.7703L198.373 35.8653C198.742 35.9013 199.118 35.9223 199.5 35.9223C204.47 35.9223 208.5 32.7933 208.5 28.9333C208.5 25.7303 204.47 21.9443 199.5 21.9443Z" fill="black"/>
</g>
<path d="M218.482 38V24.68H221.146V30.458H221.182L225.61 24.68H228.544L224.458 29.918L229.246 38H226.348L222.892 32.024L221.146 34.256V38H218.482ZM233.072 38.252C231.272 38.252 230.102 36.992 230.102 35.264C230.102 33.122 231.848 31.988 235.898 31.538C235.844 30.548 235.43 29.81 234.188 29.81C233.252 29.81 232.334 30.206 231.416 30.764L230.462 29C231.65 28.28 233.072 27.686 234.674 27.686C237.23 27.686 238.544 29.198 238.544 32.132V38H236.384L236.186 36.938H236.114C235.232 37.694 234.224 38.252 233.072 38.252ZM233.936 36.182C234.692 36.182 235.25 35.84 235.898 35.21V33.176C233.432 33.482 232.622 34.148 232.622 35.066C232.622 35.84 233.162 36.182 233.936 36.182ZM241.24 38V23.654H243.832V32.258H243.922L247.342 27.938H250.258L246.802 32.078L250.564 38H247.702L245.254 33.824L243.832 35.462V38H241.24ZM254.271 38.252C252.471 38.252 251.301 36.992 251.301 35.264C251.301 33.122 253.047 31.988 257.097 31.538C257.043 30.548 256.629 29.81 255.387 29.81C254.451 29.81 253.533 30.206 252.615 30.764L251.661 29C252.849 28.28 254.271 27.686 255.873 27.686C258.429 27.686 259.743 29.198 259.743 32.132V38H257.583L257.385 36.938H257.313C256.431 37.694 255.423 38.252 254.271 38.252ZM255.135 36.182C255.891 36.182 256.449 35.84 257.097 35.21V33.176C254.631 33.482 253.821 34.148 253.821 35.066C253.821 35.84 254.361 36.182 255.135 36.182ZM266.652 38.252C264.114 38.252 261.81 36.308 261.81 32.978C261.81 29.63 264.114 27.686 266.652 27.686C269.172 27.686 271.476 29.63 271.476 32.978C271.476 36.308 269.172 38.252 266.652 38.252ZM266.652 36.11C268.02 36.11 268.776 34.868 268.776 32.978C268.776 31.07 268.02 29.846 266.652 29.846C265.266 29.846 264.51 31.07 264.51 32.978C264.51 34.868 265.266 36.11 266.652 36.11ZM273.023 35.822H288.107V37.766H273.023V35.822ZM279.341 32.672H281.735V36.614H279.341V32.672ZM274.715 24.014H286.415V29.558H277.127V32.366H274.751V27.686H284.039V25.904H274.715V24.014ZM274.751 31.412H286.793V33.338H274.751V31.412ZM297.71 24.212H299.654V26.642C299.654 30.926 298.178 34.796 294.866 36.326L293.444 34.346C296.342 33.086 297.71 29.882 297.71 26.642V24.212ZM298.178 24.212H300.122V26.642C300.122 29.72 301.436 32.78 304.28 34.004L302.876 35.93C299.654 34.454 298.178 30.746 298.178 26.642V24.212ZM305.072 22.916H307.484V39.638H305.072V22.916ZM313.908 24.644H315.87V25.688C315.87 28.838 314.376 31.664 311.19 32.69L309.948 30.836C312.738 29.936 313.908 27.776 313.908 25.688V24.644ZM314.394 24.644H316.338V25.688C316.338 27.65 317.472 29.684 320.172 30.548L318.948 32.402C315.834 31.394 314.394 28.676 314.394 25.688V24.644ZM310.596 23.906H319.596V25.814H310.596V23.906ZM320.928 22.934H323.322V32.978H320.928V22.934ZM322.656 26.966H325.536V28.928H322.656V26.966ZM312.198 33.698H323.322V39.602H320.928V35.624H312.198V33.698ZM337.451 22.934H339.827V39.602H337.451V22.934ZM339.287 29.432H342.239V31.43H339.287V29.432ZM326.687 25.4H336.389V27.308H326.687V25.4ZM331.565 28.244C333.995 28.244 335.795 29.9 335.795 32.222C335.795 34.544 333.995 36.2 331.565 36.2C329.135 36.2 327.335 34.544 327.335 32.222C327.335 29.9 329.135 28.244 331.565 28.244ZM331.565 30.188C330.431 30.188 329.621 30.944 329.621 32.222C329.621 33.5 330.431 34.256 331.565 34.256C332.699 34.256 333.509 33.5 333.509 32.222C333.509 30.944 332.699 30.188 331.565 30.188ZM330.359 23.204H332.753V26.12H330.359V23.204ZM354.802 22.934H357.214V39.602H354.802V22.934ZM349.888 24.662H352.264C352.264 29.756 350.536 33.932 344.614 36.794L343.372 34.886C348.16 32.582 349.888 29.558 349.888 25.094V24.662ZM344.254 24.662H351.022V26.552H344.254V24.662Z" fill="black"/>
<defs>
<clipPath id="clip0_499_7966">
<rect width="18" height="18" fill="white" transform="translate(190.5 21)"/>
</clipPath>
</defs>
</svg>
