<svg width="40" height="17" viewBox="0 0 40 17" fill="none" xmlns="http://www.w3.org/2000/svg">
<path d="M1.68359 14.0938L6.28906 0.324219H9.58203L14.3633 14.1641C15.0352 14.4062 15.5039 14.6875 15.7695 15.0078L15.5352 17H9.92188L9.67578 15.0078C9.87109 14.7578 10.2578 14.5195 10.8359 14.293L10.1797 12.2773H5.38672L4.77734 14.2109C5.33984 14.4375 5.75781 14.7031 6.03125 15.0078L5.78516 17H0.3125L0.078125 15.0078C0.375 14.6406 0.910156 14.3359 1.68359 14.0938ZM7.95312 4.08594L7.92969 3.67578H7.58984C7.58984 4.64453 7.39062 5.78125 6.99219 7.08594L6.05469 10.0625H9.48828L8.57422 7.13281C8.20703 6.00781 8 4.99219 7.95312 4.08594ZM25.9062 12.6055L27.6758 12.8281V17H16.6836L16.4492 15.0078C16.6602 14.7344 17.1016 14.4688 17.7734 14.2109V3.24219C17.1094 3.00781 16.668 2.73828 16.4492 2.43359L16.6836 0.441406H22.3086L22.543 2.43359C22.2852 2.73828 21.8477 3.00781 21.2305 3.24219V14.3867H25.0156C25.2266 13.543 25.5234 12.9492 25.9062 12.6055ZM37.9531 12.6055L39.7227 12.8281V17H28.7305L28.4961 15.0078C28.707 14.7344 29.1484 14.4688 29.8203 14.2109V3.24219C29.1562 3.00781 28.7148 2.73828 28.4961 2.43359L28.7305 0.441406H34.3555L34.5898 2.43359C34.332 2.73828 33.8945 3.00781 33.2773 3.24219V14.3867H37.0625C37.2734 13.543 37.5703 12.9492 37.9531 12.6055Z" fill="black"/>
</svg>
