<svg width="30" height="31" viewBox="0 0 30 31" fill="none" xmlns="http://www.w3.org/2000/svg">
<path d="M7.31012 17.7334C4.60284 17.7988 2.15947 20.2822 1.26667 21.5321C0.844445 22.0749 0 23.8121 0 26.4178C0 29.0235 2.53333 30.0368 3.8 30.2178H12.6667V20.4464C12.6266 20.3903 12.5808 20.3296 12.5295 20.2653C12.5149 20.2654 12.5003 20.2654 12.4857 20.2654C9.58753 20.2654 7.2381 19.2932 7.2381 18.094C7.2381 17.9711 7.26275 17.8507 7.31012 17.7334Z" fill="#73744A"/>
<path d="M18.0232 17.7334C20.7305 17.7988 23.1739 20.2822 24.0667 21.5321C24.4889 22.0749 25.3333 23.8121 25.3333 26.4178C25.3333 29.0235 22.8 30.0368 21.5333 30.2178H12.6667V20.4464C12.7067 20.3903 12.7525 20.3296 12.8038 20.2653C12.8184 20.2654 12.833 20.2654 12.8476 20.2654C15.7458 20.2654 18.0952 19.2932 18.0952 18.094C18.0952 17.9711 18.0706 17.8507 18.0232 17.7334Z" fill="#73744A"/>
<path fill-rule="evenodd" clip-rule="evenodd" d="M9.60955 1.51723C7.79852 2.81645 6.39393 5.01209 6.6083 7.05657L5.88142 7.32765C5.43171 7.32765 5.06714 7.69221 5.06714 8.14193C5.06714 8.34816 5.1438 8.53648 5.27019 8.67995C5.45079 8.57862 5.65912 8.52083 5.88094 8.52083H19.4524C19.6745 8.52083 19.883 8.57876 20.0638 8.68031C20.1903 8.5368 20.2671 8.34833 20.2671 8.14193C20.2671 7.69221 19.9026 7.32765 19.4529 7.32765L18.9069 7.05657C18.9069 4.91824 17.4388 2.61454 15.5829 1.34407L14.9355 4.14945C14.8424 4.55305 14.4397 4.80474 14.0361 4.7116C13.6325 4.61846 13.3808 4.21576 13.4739 3.81216L14.2084 0.629378C13.7274 0.456415 13.2386 0.361328 12.7576 0.361328C12.1751 0.361328 11.568 0.50081 10.9717 0.749193L11.6786 3.81216C11.7717 4.21576 11.52 4.61846 11.1164 4.7116C10.7128 4.80474 10.3101 4.55305 10.217 4.14945L9.60955 1.51723ZM7.2919 11.0208H6.74224C7.33778 14.8568 9.80476 17.7324 12.7576 17.7324C15.7105 17.7324 18.1774 14.8568 18.773 11.0208H18.2233C17.9757 12.5375 17.4217 13.8816 16.6682 14.9232C15.6283 16.3607 14.2388 17.1895 12.7576 17.1895C11.2764 17.1895 9.8869 16.3607 8.84706 14.9232C8.09351 13.8816 7.53957 12.5375 7.2919 11.0208Z" fill="#73744A"/>
<path d="M23.4087 20.8774L23.2622 20.7306H23.0548H22.8064C23.5911 19.6051 24.0503 18.2384 24.0503 16.7709C24.0503 12.9369 20.9425 9.8291 17.1085 9.8291C13.2745 9.8291 10.1667 12.9369 10.1667 16.7709C10.1667 20.6049 13.2745 23.7127 17.1085 23.7127C18.5761 23.7127 19.9428 23.2534 21.0682 22.4688V22.7171V22.9245L21.215 23.071L26.1702 28.0163L26.5238 28.3692L26.877 28.016L28.3536 26.5393L28.7068 26.1861L28.354 25.8326L23.4087 20.8774ZM17.1085 20.7306C14.917 20.7306 13.1488 18.9624 13.1488 16.7709C13.1488 14.5793 14.917 12.8112 17.1085 12.8112C19.3001 12.8112 21.0682 14.5793 21.0682 16.7709C21.0682 18.9624 19.3001 20.7306 17.1085 20.7306Z" fill="#73744A" stroke="white"/>
</svg>
