<svg width="30" height="27" viewBox="0 0 30 27" fill="none" xmlns="http://www.w3.org/2000/svg">
<path d="M7.22222 8.77778V4.11111C7.22222 3.28599 7.55 2.49467 8.13345 1.91122C8.71689 1.32778 9.50822 1 10.3333 1H25.8889C26.714 1 27.5053 1.32778 28.0888 1.91122C28.6722 2.49467 29 3.28599 29 4.11111V22.7778C29 23.6029 28.6722 24.3942 28.0888 24.9777C27.5053 25.5611 26.714 25.8889 25.8889 25.8889H16.5556M16.5556 25.8889V16.288C16.5554 15.4629 16.2275 14.6718 15.644 14.0884L10.9773 9.42178C10.3939 8.83853 9.60273 8.51089 8.77778 8.51089C7.95282 8.51089 7.16164 8.83853 6.57822 9.42178L1.91156 14.0884C1.32807 14.6718 1.00018 15.4629 1 16.288V22.7778C1 23.6029 1.32778 24.3942 1.91122 24.9777C2.49467 25.5611 3.28599 25.8889 4.11111 25.8889H8.77778M16.5556 25.8889H8.77778M8.77778 25.8889V19.6667M22.7809 13.4444H22.7778" stroke="#73744A" strokeWidth="2" strokeLinecap="round" strokeLinejoin="round"/>
<mask id="path-2-inside-1_588_16874" fill="white">
<ellipse cx="22.7998" cy="8" rx="1" ry="1"/>
</mask>
<ellipse cx="22.7998" cy="8" rx="1" ry="1" fill="black"/>
<path d="M22.7998 8V8V10C23.9044 10 24.7998 9.10457 24.7998 8H22.7998ZM22.7998 8V8H20.7998C20.7998 9.10457 21.6952 10 22.7998 10V8ZM22.7998 8V8V6C21.6952 6 20.7998 6.89543 20.7998 8H22.7998ZM22.7998 8V8H24.7998C24.7998 6.89543 23.9044 6 22.7998 6V8Z" fill="#73744A" mask="url(#path-2-inside-1_588_16874)"/>
<path d="M23.2998 19C23.2998 19.2761 23.0759 19.5 22.7998 19.5C22.5237 19.5 22.2998 19.2761 22.2998 19C22.2998 18.7239 22.5237 18.5 22.7998 18.5C23.0759 18.5 23.2998 18.7239 23.2998 19Z" fill="black" stroke="#73744A"/>
</svg>
