<svg width="442" height="356" viewBox="0 0 442 356" fill="none" xmlns="http://www.w3.org/2000/svg">
<g clipPath="url(#clip0_592_16538)">
<path d="M384.297 57.925C383.994 58.0291 383.745 58.2493 383.604 58.5371C383.463 58.825 383.443 59.157 383.547 59.46L390.61 80.0272C390.991 81.1384 391.799 82.0524 392.854 82.5683C393.377 82.8238 393.945 82.9738 394.525 83.0098C395.106 83.0457 395.688 82.967 396.238 82.7781L399.666 81.6009L401.759 87.6949C402.175 88.9071 403.056 89.9043 404.207 90.467C405.359 91.0298 406.686 91.1121 407.899 90.6959C409.111 90.2796 410.108 89.3989 410.671 88.2474C411.234 87.0959 411.316 85.768 410.9 84.5558L408.807 78.4618L412.235 77.2847C413.346 76.9031 414.26 76.0958 414.776 75.0402C415.292 73.9847 415.367 72.7675 414.986 71.6563L407.923 51.0891C407.819 50.7861 407.598 50.5368 407.311 50.3961C407.023 50.2554 406.691 50.2348 406.388 50.3389L384.297 57.925ZM406.03 53.0165L411 67.4897L391.195 74.2911L386.224 59.8179L396.889 56.1556L398.328 60.3452C398.432 60.6483 398.652 60.8975 398.94 61.0382C399.228 61.1789 399.56 61.1995 399.863 61.0954C400.166 60.9914 400.415 60.7712 400.556 60.4833C400.696 60.1955 400.717 59.8635 400.613 59.5604L399.174 55.3708L401.459 54.586L403.944 61.8227C404.048 62.1257 404.269 62.375 404.557 62.5157C404.844 62.6564 405.176 62.677 405.479 62.5729C405.782 62.4688 406.032 62.2486 406.172 61.9608C406.313 61.6729 406.334 61.3409 406.23 61.0379L403.745 53.8013L406.03 53.0165ZM391.979 76.5763L411.785 69.775L412.7 72.4411C413.061 73.4923 412.501 74.6384 411.45 74.9994L406.879 76.569C406.576 76.6731 406.327 76.8932 406.186 77.1811C406.046 77.469 406.025 77.801 406.129 78.104L408.614 85.3406C408.822 85.9467 408.781 86.6106 408.5 87.1864C408.219 87.7621 407.72 88.2025 407.114 88.4106C406.508 88.6188 405.844 88.5776 405.268 88.2962C404.692 88.0148 404.252 87.5162 404.044 86.9102L401.559 79.6735C401.455 79.3705 401.234 79.1212 400.947 78.9805C400.659 78.8398 400.327 78.8192 400.024 78.9233L395.453 80.4928C394.402 80.8538 393.256 80.2937 392.895 79.2424L391.979 76.5763Z" fill="black"/>
</g>
<path d="M1.23789 57.2765L4.50213 54.0132C6.29845 52.2576 8.34368 52.4024 10.1618 54.406L31.7877 77.9522C32.6754 77.3323 33.5007 77.3531 34.5134 77.5594L36.7233 78.0137L38.1903 76.5467L38.0862 75.4527C37.9423 74.3169 38.2726 73.4491 39.326 72.3957L41.0608 70.6817C42.1142 69.6075 43.5187 69.546 44.5304 70.5577L51.409 77.4354C52.4208 78.4481 52.3592 79.8318 51.3049 80.906L49.5701 82.6408C48.5177 83.6942 47.629 84.0661 46.5132 83.9005L45.3983 83.7774L43.9938 85.181L44.6137 87.5982C44.9023 88.7954 44.5928 89.7664 43.2915 91.047L38.1903 96.1283C30.6917 103.584 21.0883 103.357 14.5201 96.7274C13.6106 95.8189 13.5282 94.579 14.1065 93.6705C14.5816 92.8849 15.5933 92.4108 16.977 92.7619C20.1788 93.5664 23.3805 93.3193 26.5198 91.1918L25.1977 87.8452C24.7018 86.6063 24.7434 85.5946 25.2393 84.6652L1.63066 62.9352C-0.352105 61.0991 -0.579248 59.0955 1.23884 57.2774M17.8042 95.9012C23.443 100.116 30.4655 99.4342 35.5469 94.3528L41.1024 88.838C41.5984 88.3421 41.6608 87.9502 41.516 87.3303L40.7314 84.0254L44.0562 80.6997L46.0816 80.8861C46.6797 80.9476 46.8652 80.9069 47.3612 80.4318L48.6625 79.1097L42.859 73.2853L41.5368 74.6065C41.0617 75.0817 41.0201 75.2681 41.0825 75.8672L41.268 77.9115L37.9641 81.2164L34.5352 80.5558C33.9361 80.4318 33.6266 80.4318 33.1098 80.9476L28.5234 85.5529C28.0275 86.0489 27.965 86.3385 28.2338 86.9991L30.2592 91.8325C26.871 95.075 22.3887 96.8722 18.072 95.4876C17.8865 95.4261 17.7625 95.4677 17.7001 95.5501C17.6386 95.6532 17.6386 95.7564 17.8042 95.9002M3.92386 58.7643C2.87048 59.8176 3.24243 60.4584 3.94373 61.0991L27.1398 82.4979L29.7216 79.8952L8.2604 56.7796C7.61966 56.0774 6.81425 55.871 5.94638 56.7181L3.92386 58.7643Z" fill="black"/>
<g clipPath="url(#clip1_592_16538)">
<path d="M276.795 16.075C277.155 14.7301 278.035 13.5834 279.241 12.8872C280.446 12.191 281.879 12.0023 283.224 12.3627L308.58 19.1567C309.925 19.5171 311.072 20.397 311.768 21.6028C312.464 22.8087 312.653 24.2417 312.292 25.5866L310.933 30.6577C310.573 32.0027 309.693 33.1494 308.487 33.8456C307.282 34.5418 305.849 34.7304 304.504 34.37L279.148 27.576C277.803 27.2157 276.656 26.3358 275.96 25.1299C275.264 23.9241 275.075 22.4911 275.436 21.1461L276.795 16.075Z" stroke="black" strokeWidth="2" strokeLinecap="round" strokeLinejoin="round"/>
<path d="M311.613 28.1224L314.149 28.8018C315.493 29.1622 316.64 30.0421 317.336 31.2479C318.033 32.4538 318.221 33.8868 317.861 35.2317C316.96 38.5941 314.76 41.4608 311.746 43.2013C308.731 44.9418 305.148 45.4134 301.786 44.5125L289.108 41.1155L287.749 46.1866M281.999 47.3634C282.179 46.6909 282.619 46.1175 283.222 45.7694C283.825 45.4214 284.541 45.327 285.214 45.5072L290.285 46.866C290.958 47.0462 291.531 47.4861 291.879 48.0891C292.227 48.692 292.321 49.4085 292.141 50.081L289.424 60.2232C289.243 60.8957 288.803 61.469 288.201 61.8171C287.598 62.1652 286.881 62.2595 286.209 62.0793L281.138 60.7205C280.465 60.5404 279.892 60.1004 279.544 59.4975C279.196 58.8946 279.101 58.1781 279.281 57.5056L281.999 47.3634Z" stroke="black" strokeWidth="2" strokeLinecap="round" strokeLinejoin="round"/>
</g>
<g clipPath="url(#clip2_592_16538)">
<path d="M44.6666 217.099L49.6617 215.761C50.7818 215.461 51.9454 216.132 52.2459 217.253L52.6649 218.812C52.7214 218.768 52.7869 218.739 52.8565 218.725C52.9261 218.71 52.998 218.712 53.0668 218.729C53.1356 218.747 53.1997 218.78 53.2541 218.825C53.3085 218.871 53.352 218.928 53.3812 218.993L53.5052 219.3L54.9062 218.925L54.8457 218.776C54.7229 218.509 54.8633 218.186 55.1501 218.109C55.3687 218.05 55.6039 218.163 55.7034 218.371L55.8274 218.678L57.2148 218.307L57.1543 218.158C57.0315 217.89 57.1718 217.567 57.4587 217.49C57.6773 217.432 57.9124 217.545 58.012 217.752L58.1369 218.06L58.7931 217.883L58.1974 215.663C58.1233 215.395 58.1033 215.114 58.1386 214.838C58.1739 214.562 58.2637 214.296 58.4029 214.055C58.5421 213.814 58.7278 213.603 58.9493 213.434C59.1707 213.266 59.4235 213.143 59.6929 213.073L64.6885 211.734C65.8086 211.434 66.9717 212.105 67.2727 213.226L67.682 214.751C67.7882 214.727 67.8995 214.74 67.9969 214.789C68.0944 214.837 68.1719 214.918 68.2162 215.018L68.3411 215.326L69.7413 214.95L69.6808 214.801C69.5579 214.534 69.6983 214.211 69.9852 214.134C70.2037 214.075 70.4389 214.188 70.5384 214.396L70.6633 214.703L71.722 214.42C72.1026 214.318 72.4995 214.292 72.8902 214.343C73.2808 214.394 73.6575 214.522 73.9987 214.719C74.3399 214.916 74.639 215.179 74.8788 215.491C75.1187 215.804 75.2946 216.161 75.3966 216.541L76.172 219.438C76.3777 220.205 76.2707 221.023 75.8745 221.711C75.4784 222.399 74.8254 222.903 74.0587 223.11L74.2601 223.608C74.3829 223.875 74.2425 224.198 73.9557 224.275C73.8474 224.304 73.7321 224.294 73.6306 224.246C73.5291 224.198 73.4482 224.116 73.4024 224.013L73.1367 223.357L71.7365 223.733L71.9378 224.23C72.0607 224.497 71.9203 224.82 71.6334 224.897C71.5252 224.927 71.4098 224.917 71.3084 224.869C71.2069 224.821 71.1259 224.738 71.0802 224.635L70.8144 223.98L70.2029 224.143L70.8053 226.385C71.1055 227.506 70.4335 228.67 69.3128 228.971L64.3132 230.31C63.7727 230.453 63.1976 230.376 62.7135 230.097C62.2293 229.817 61.8754 229.358 61.7289 228.818L61.4115 227.636C61.3052 227.661 61.1936 227.648 61.0957 227.6C60.9979 227.551 60.92 227.47 60.8754 227.37L60.6102 226.714L59.2237 227.085L59.425 227.583C59.5479 227.85 59.4075 228.173 59.1206 228.25C59.0124 228.28 58.897 228.269 58.7956 228.221C58.6941 228.173 58.6131 228.091 58.5674 227.988L58.3016 227.332L56.9014 227.708L57.1028 228.205C57.2256 228.472 57.0853 228.795 56.7984 228.872C56.6901 228.902 56.5748 228.892 56.4733 228.844C56.3718 228.796 56.2909 228.713 56.2451 228.61L55.9794 227.955L55.1767 228.169L55.779 230.412C56.0792 231.532 55.4072 232.696 54.2865 232.997L49.2869 234.336C48.7464 234.479 48.1714 234.403 47.6872 234.123C47.2031 233.844 46.8491 233.384 46.7027 232.844L43.1711 219.689C43.097 219.421 43.0771 219.141 43.1123 218.864C43.1476 218.588 43.2375 218.322 43.3766 218.081C43.5158 217.84 43.7015 217.629 43.923 217.46C44.1445 217.292 44.3972 217.169 44.6666 217.099ZM54.6595 226.239L55.2255 226.086L53.4139 221.604L54.6595 226.239ZM45.1687 219.035C45.1433 219.042 45.1217 219.059 45.1086 219.082C45.0954 219.104 45.0919 219.131 45.0987 219.157L45.1021 219.167L46.0955 222.866L51.3074 221.469L50.3144 217.771C50.3103 217.757 50.3036 217.744 50.2946 217.733C50.2856 217.722 50.2744 217.713 50.2618 217.706C50.2496 217.698 50.236 217.693 50.2219 217.691C50.2077 217.689 50.1932 217.689 50.1793 217.693L45.1796 219.032L45.1687 219.035ZM51.5662 222.435L46.3548 223.831L47.3785 227.646L52.5912 226.249L51.5662 222.435ZM47.6373 228.612L48.6356 232.327C48.6395 232.34 48.6462 232.353 48.6553 232.364C48.6643 232.376 48.6755 232.385 48.6881 232.392C48.7184 232.409 48.7475 232.411 48.7707 232.405L53.7703 231.065C53.7931 231.06 53.8173 231.044 53.8348 231.013C53.8424 231.001 53.8475 230.987 53.8497 230.973C53.852 230.959 53.8513 230.945 53.8478 230.931L52.8505 227.214L47.6373 228.612ZM58.8908 219.928L60.2377 223.261L59.3124 219.816L58.8908 219.928ZM69.6849 222.212L70.0605 222.111L68.8607 219.142L69.6849 222.212ZM56.1476 225.839L57.5477 225.464L55.6601 220.794L54.2599 221.169L56.1476 225.839ZM56.5822 220.547L58.4698 225.217L59.8563 224.846L57.9687 220.175L56.5822 220.547ZM69.095 217.194L70.9826 221.864L72.3828 221.489L70.4952 216.819L69.095 217.194ZM71.4172 216.572L73.3048 221.242L73.5338 221.181C73.6608 221.148 73.7798 221.089 73.8841 221.009C73.9884 220.929 74.0759 220.829 74.1416 220.715C74.2073 220.602 74.2499 220.476 74.267 220.346C74.2841 220.215 74.2754 220.083 74.2413 219.956L73.4636 217.059C73.395 216.803 73.2274 216.585 72.9977 216.452C72.7681 216.319 72.4952 216.284 72.2391 216.352L71.4172 216.572ZM60.195 215.009C60.1696 215.016 60.148 215.033 60.1348 215.055C60.1217 215.078 60.1182 215.105 60.125 215.13L60.1284 215.14L61.1218 218.84L66.3337 217.442L65.3406 213.745C65.3366 213.731 65.3299 213.718 65.3209 213.707C65.3119 213.696 65.3007 213.686 65.2881 213.68C65.2759 213.672 65.2623 213.667 65.2481 213.665C65.2339 213.662 65.2195 213.663 65.2055 213.667L60.2059 215.006L60.195 215.009ZM66.5925 218.408L61.3811 219.805L62.4048 223.62L67.6175 222.223L66.5925 218.408ZM62.6635 224.585L63.6619 228.3C63.6658 228.314 63.6725 228.327 63.6815 228.338C63.6906 228.349 63.7017 228.358 63.7144 228.365C63.7447 228.383 63.7737 228.384 63.797 228.378L68.7966 227.039C68.8193 227.033 68.8436 227.017 68.8616 226.986C68.869 226.974 68.8739 226.96 68.8761 226.946C68.8782 226.932 68.8776 226.918 68.8741 226.904L67.8768 223.188L62.6635 224.585Z" fill="black"/>
</g>
<path d="M415.877 255.549C415.682 255.601 415.479 255.614 415.279 255.588C415.079 255.562 414.887 255.496 414.712 255.396C414.538 255.295 414.385 255.161 414.262 255.001C414.139 254.841 414.05 254.658 413.997 254.464L410.068 239.799C409.963 239.407 410.018 238.988 410.221 238.636C410.424 238.283 410.759 238.026 411.152 237.921C411.545 237.815 411.963 237.87 412.316 238.073C412.668 238.276 412.925 238.611 413.031 239.004L416.96 253.668C417.013 253.863 417.026 254.066 417 254.266C416.974 254.466 416.909 254.658 416.808 254.833C416.708 255.008 416.573 255.161 416.414 255.284C416.254 255.406 416.071 255.496 415.877 255.549ZM410.476 261.802C409.374 261.17 408.409 260.326 407.636 259.318C406.863 258.311 406.297 257.16 405.971 255.932L402.236 241.993C402.13 241.605 402.102 241.199 402.154 240.799C402.207 240.399 402.338 240.014 402.54 239.665L404.14 236.895L401.346 235.282C400.767 234.947 400.313 234.432 400.054 233.816C400.026 233.751 400.003 233.685 399.985 233.617L399.423 231.522C399.213 230.737 399.324 229.9 399.73 229.196C400.137 228.492 400.806 227.978 401.592 227.767L406.493 226.455L401.08 206.286C401.028 206.091 401.014 205.888 401.041 205.689C401.067 205.489 401.132 205.296 401.233 205.122C401.334 204.947 401.468 204.794 401.628 204.672C401.788 204.549 401.97 204.459 402.165 204.407C402.36 204.355 402.563 204.341 402.762 204.368C402.962 204.394 403.155 204.459 403.329 204.56C403.504 204.661 403.657 204.795 403.779 204.955C403.902 205.115 403.992 205.297 404.044 205.492L409.45 225.668L414.349 224.357C414.738 224.253 415.144 224.226 415.543 224.279C415.943 224.331 416.328 224.462 416.677 224.663C417.025 224.865 417.331 225.133 417.576 225.453C417.822 225.772 418.002 226.137 418.106 226.526L418.667 228.621C418.685 228.688 418.699 228.757 418.708 228.826C418.788 229.487 418.652 230.155 418.322 230.733L416.709 233.527L419.481 235.127C419.83 235.328 420.136 235.596 420.381 235.915C420.626 236.234 420.805 236.599 420.909 236.987L424.643 250.928C425.137 252.774 425.073 254.726 424.458 256.535C423.844 258.345 422.707 259.932 421.191 261.096C419.674 262.26 417.847 262.948 415.94 263.074C414.033 263.199 412.131 262.757 410.476 261.802ZM412.009 259.146C413.139 259.799 414.438 260.101 415.74 260.016C417.043 259.931 418.291 259.461 419.326 258.667C420.362 257.872 421.139 256.788 421.558 255.553C421.978 254.317 422.022 252.984 421.684 251.723L417.948 237.784L415.175 236.183C414.471 235.776 413.957 235.106 413.746 234.321C413.536 233.535 413.646 232.698 414.053 231.993L415.655 229.217L415.146 227.312L402.387 230.73L402.898 232.636L405.673 234.238C406.378 234.645 406.892 235.315 407.102 236.101C407.313 236.887 407.203 237.724 406.796 238.428L405.196 241.199L408.933 255.139C409.155 255.977 409.541 256.763 410.069 257.451C410.598 258.138 411.257 258.715 412.009 259.146Z" fill="black"/>
<path d="M363.71 144.918L355.88 137.088C355.749 136.956 355.583 136.863 355.401 136.82C355.22 136.777 355.03 136.786 354.853 136.845C354.676 136.904 354.519 137.012 354.4 137.155C354.282 137.299 354.205 137.473 354.18 137.658L353.45 142.798L351.45 144.798L351.12 144.608C350.905 144.503 350.659 144.479 350.427 144.54C350.196 144.601 349.994 144.744 349.859 144.941C349.723 145.138 349.663 145.378 349.689 145.616C349.715 145.854 349.825 146.074 350 146.238L348.85 147.408L348.52 147.218C348.305 147.119 348.062 147.1 347.835 147.163C347.607 147.227 347.409 147.368 347.276 147.564C347.143 147.759 347.084 147.995 347.108 148.23C347.133 148.465 347.24 148.684 347.41 148.848L346.24 150.008L345.92 149.798C345.806 149.732 345.68 149.689 345.549 149.672C345.418 149.655 345.285 149.663 345.158 149.698C345.031 149.732 344.911 149.791 344.807 149.872C344.703 149.953 344.615 150.053 344.55 150.168C344.437 150.374 344.4 150.613 344.446 150.843C344.492 151.074 344.617 151.281 344.8 151.428L344.29 151.938C344.197 152.032 344.126 152.144 344.08 152.268C344.029 152.388 344.002 152.517 344 152.648V155.798C344 156.063 344.105 156.317 344.293 156.505C344.48 156.693 344.735 156.798 345 156.798H348.13C348.261 156.796 348.39 156.769 348.51 156.718C348.634 156.672 348.746 156.601 348.84 156.508L350.54 154.798L350.87 154.988C350.984 155.054 351.109 155.098 351.239 155.116C351.37 155.134 351.502 155.126 351.63 155.092C351.757 155.059 351.876 155.001 351.981 154.921C352.086 154.841 352.174 154.742 352.24 154.628C352.357 154.422 352.397 154.181 352.353 153.949C352.309 153.716 352.184 153.507 352 153.358L353.17 152.198L353.5 152.388C353.649 152.473 353.818 152.517 353.99 152.518C354.181 152.501 354.364 152.429 354.515 152.31C354.667 152.192 354.781 152.033 354.844 151.851C354.908 151.67 354.917 151.474 354.872 151.287C354.827 151.1 354.729 150.93 354.59 150.798L355.76 149.638L356.09 149.828C356.239 149.913 356.408 149.957 356.58 149.958C356.784 149.954 356.982 149.888 357.148 149.769C357.313 149.649 357.438 149.481 357.506 149.289C357.573 149.096 357.58 148.887 357.526 148.69C357.471 148.494 357.357 148.318 357.2 148.188L357.99 147.398L363.14 146.668C363.325 146.642 363.499 146.564 363.642 146.444C363.785 146.324 363.892 146.166 363.95 145.988C364.019 145.806 364.032 145.607 363.99 145.417C363.947 145.227 363.85 145.054 363.71 144.918ZM347.72 154.798H346V153.078L346.57 152.508L348.75 153.798L347.72 154.798ZM350.21 152.298L348 151.048L349.14 149.908L351.31 151.158L350.21 152.298ZM352.82 149.698L350.64 148.438L351.79 147.298L354 148.548L352.82 149.698ZM355.43 147.088L353.25 145.798L354.39 144.658L356.11 146.378L355.43 147.088ZM357.88 145.348L355.45 142.918L355.88 139.918L360.88 144.918L357.88 145.348Z" fill="black"/>
<path d="M90 163.793V35.793C90 22.793 103 22.793 103 22.793M90 44.4596H129M90 61.793H129M90 79.1263H129M90 96.4596H129M142 107.293V37.9596C142 24.9596 155 24.9596 155 24.9596" stroke="black" strokeWidth="4" strokeLinecap="round" strokeLinejoin="round"/>
<path d="M290.133 266.793C290.467 273.793 286.733 287.793 269.133 287.793C251.533 287.793 175.133 287.793 139.133 287.793C134.133 288.626 124.133 286.793 124.133 272.793C124.133 262.992 124.133 221.086 124.133 183.793M287.133 230.293C287.133 206.96 287.133 157.093 287.133 144.293C287.133 131.492 275.133 126.959 269.133 126.293C231.133 126.293 151.933 126.293 139.133 126.293C126.333 126.293 123.8 136.293 124.133 141.293C124.133 152.689 124.133 167.818 124.133 183.793M124.133 183.793H283.633M190.633 211.293L171.633 230.293M171.633 211.293L190.633 230.293M239.633 211.293L220.633 230.293M220.633 211.293L239.633 230.293" stroke="black" strokeWidth="12" strokeLinecap="round" strokeLinejoin="round"/>
<path d="M217.633 252.293C217.633 260.794 212.243 266.293 207.133 266.293C202.022 266.293 196.633 260.794 196.633 252.293C196.633 243.792 202.022 238.293 207.133 238.293C212.243 238.293 217.633 243.792 217.633 252.293Z" stroke="black" strokeWidth="7"/>
<circle cx="152.133" cy="155.793" r="5" fill="black"/>
<circle cx="181.133" cy="155.793" r="5" fill="black"/>
<circle cx="210.133" cy="155.793" r="5" fill="black"/>
<path d="M173.182 116.066V106.975H180.455L191.364 70.6112H218.636L229.545 106.975H236.818V116.066H173.182ZM190 106.975H220L211.818 79.7021H198.182L190 106.975ZM200.455 61.5202V38.793H209.545V61.5202H200.455ZM227.5 72.7702L221.023 66.293L237.159 50.2702L243.523 56.6339L227.5 72.7702ZM232.273 93.3384V84.2475H255V93.3384H232.273ZM182.5 72.7702L166.477 56.6339L172.841 50.2702L188.977 66.293L182.5 72.7702ZM155 93.3384V84.2475H177.727V93.3384H155Z" fill="#FF0000"/>
<path d="M132.26 347.841C132.228 347.089 132.204 346.249 132.188 345.321C132.188 344.377 132.18 343.457 132.164 342.561C130.596 342.545 129.108 342.521 127.7 342.489C126.308 342.457 125.092 342.417 124.052 342.369C124.052 341.681 124.06 340.849 124.076 339.873C124.092 338.897 124.116 337.833 124.148 336.681C124.18 335.529 124.22 334.345 124.268 333.129C124.316 331.913 124.364 330.721 124.412 329.553C125.1 329.553 125.86 329.577 126.692 329.625C127.524 329.657 128.236 329.713 128.828 329.793C128.732 330.609 128.636 331.513 128.54 332.505C128.444 333.481 128.348 334.481 128.252 335.505C128.172 336.513 128.1 337.473 128.036 338.385C127.972 339.297 127.924 340.089 127.892 340.761C128.596 340.761 129.308 340.761 130.028 340.761C130.748 340.745 131.46 340.721 132.164 340.689C132.164 340.545 132.164 340.401 132.164 340.257C132.164 339.057 132.172 337.833 132.188 336.585C132.204 335.321 132.22 334.097 132.236 332.913C132.268 331.713 132.3 330.617 132.332 329.625C133.356 329.625 134.212 329.633 134.9 329.649C135.604 329.665 136.156 329.689 136.556 329.721C136.508 330.585 136.452 331.617 136.388 332.817C136.34 334.017 136.284 335.281 136.22 336.609C136.156 337.937 136.1 339.241 136.052 340.521C136.964 340.457 137.732 340.393 138.356 340.329L138.452 342.609C137.636 342.609 136.812 342.609 135.98 342.609C135.932 343.809 135.892 344.865 135.86 345.777C135.844 346.689 135.836 347.345 135.836 347.745C135.564 347.761 135.212 347.777 134.78 347.793C134.348 347.809 133.9 347.817 133.436 347.817C132.988 347.833 132.596 347.841 132.26 347.841ZM146.052 347.913C144.756 347.913 143.604 347.537 142.596 346.785C141.604 346.017 140.82 344.969 140.244 343.641C139.684 342.297 139.404 340.761 139.404 339.033C139.404 337.657 139.58 336.385 139.932 335.217C140.3 334.049 140.812 333.033 141.468 332.169C142.124 331.305 142.892 330.633 143.772 330.153C144.652 329.673 145.612 329.433 146.652 329.433C147.964 329.433 149.116 329.809 150.108 330.561C151.116 331.313 151.9 332.353 152.46 333.681C153.036 335.009 153.324 336.545 153.324 338.289C153.324 339.665 153.14 340.937 152.772 342.105C152.404 343.273 151.892 344.297 151.236 345.177C150.58 346.041 149.812 346.713 148.932 347.193C148.052 347.673 147.092 347.913 146.052 347.913ZM147.084 345.897C147.564 345.897 147.988 345.657 148.356 345.177C148.74 344.681 149.044 344.009 149.268 343.161C149.492 342.313 149.604 341.353 149.604 340.281C149.604 339.161 149.484 338.081 149.244 337.041C149.02 335.985 148.716 335.041 148.332 334.209C147.948 333.361 147.508 332.689 147.012 332.193C146.532 331.697 146.036 331.449 145.524 331.449C144.804 331.449 144.22 331.945 143.772 332.937C143.34 333.913 143.124 335.201 143.124 336.801C143.124 337.953 143.236 339.073 143.46 340.161C143.684 341.233 143.98 342.201 144.348 343.065C144.732 343.929 145.156 344.617 145.62 345.129C146.1 345.641 146.588 345.897 147.084 345.897ZM162.963 347.841C162.931 347.089 162.907 346.249 162.891 345.321C162.891 344.377 162.883 343.457 162.867 342.561C161.299 342.545 159.811 342.521 158.403 342.489C157.011 342.457 155.795 342.417 154.755 342.369C154.755 341.681 154.763 340.849 154.779 339.873C154.795 338.897 154.819 337.833 154.851 336.681C154.883 335.529 154.923 334.345 154.971 333.129C155.019 331.913 155.067 330.721 155.115 329.553C155.803 329.553 156.563 329.577 157.395 329.625C158.227 329.657 158.939 329.713 159.531 329.793C159.435 330.609 159.339 331.513 159.243 332.505C159.147 333.481 159.051 334.481 158.955 335.505C158.875 336.513 158.803 337.473 158.739 338.385C158.675 339.297 158.627 340.089 158.595 340.761C159.299 340.761 160.011 340.761 160.731 340.761C161.451 340.745 162.163 340.721 162.867 340.689C162.867 340.545 162.867 340.401 162.867 340.257C162.867 339.057 162.875 337.833 162.891 336.585C162.907 335.321 162.923 334.097 162.939 332.913C162.971 331.713 163.003 330.617 163.035 329.625C164.059 329.625 164.915 329.633 165.603 329.649C166.307 329.665 166.859 329.689 167.259 329.721C167.211 330.585 167.155 331.617 167.091 332.817C167.043 334.017 166.987 335.281 166.923 336.609C166.859 337.937 166.803 339.241 166.755 340.521C167.667 340.457 168.435 340.393 169.059 340.329L169.155 342.609C168.339 342.609 167.515 342.609 166.683 342.609C166.635 343.809 166.595 344.865 166.563 345.777C166.547 346.689 166.539 347.345 166.539 347.745C166.267 347.761 165.915 347.777 165.483 347.793C165.051 347.809 164.603 347.817 164.139 347.817C163.691 347.833 163.299 347.841 162.963 347.841ZM180.25 338.746V345.062C180.844 345.281 181.281 345.574 181.562 345.941L181.328 347.793H176.629L176.383 345.941C176.68 345.574 177.121 345.281 177.707 345.062V333.965C177.051 333.73 176.594 333.438 176.336 333.086L176.57 331.234H181.516L186.297 340.551C186.477 340.887 186.648 341.281 186.812 341.734C186.984 342.18 187.156 342.68 187.328 343.234L187.492 343.809L187.762 343.715C187.535 342.293 187.422 341.125 187.422 340.211V333.988C186.828 333.762 186.391 333.461 186.109 333.086L186.344 331.234H191.043L191.289 333.086C190.992 333.461 190.551 333.762 189.965 333.988V347.793H186.203L181.375 338.406C181.031 337.758 180.688 336.855 180.344 335.699L180.18 335.148L179.91 335.242C180.137 336.664 180.25 337.832 180.25 338.746ZM206.535 339.098C206.535 340.762 206.352 342.16 205.984 343.293C205.617 344.426 205.102 345.336 204.438 346.023C203.781 346.711 203.008 347.207 202.117 347.512C201.234 347.816 200.273 347.969 199.234 347.969C197.805 347.969 196.59 347.688 195.59 347.125C194.598 346.555 193.84 345.645 193.316 344.395C192.801 343.145 192.543 341.492 192.543 339.438C192.543 336.594 193.184 334.48 194.465 333.098C195.754 331.707 197.504 331.012 199.715 331.012C201.98 331.012 203.684 331.645 204.824 332.91C205.965 334.168 206.535 336.23 206.535 339.098ZM202.949 339.508C202.949 335.672 201.797 333.754 199.492 333.754C198.414 333.754 197.59 334.168 197.02 334.996C196.785 335.34 196.598 335.805 196.457 336.391C196.316 336.969 196.223 337.609 196.176 338.312C196.129 339.016 196.133 339.723 196.188 340.434C196.242 341.137 196.34 341.789 196.48 342.391C196.629 342.992 196.824 343.48 197.066 343.855C197.676 344.801 198.512 345.273 199.574 345.273C200.637 345.273 201.465 344.832 202.059 343.949C202.652 343.059 202.949 341.578 202.949 339.508ZM208.469 334.879L206.957 334.691V331.258H220.398V334.691L218.887 334.879C218.676 334.73 218.477 334.395 218.289 333.871H215.406V345.004C216.031 345.254 216.473 345.52 216.73 345.801L216.484 347.793H210.871L210.625 345.801C210.836 345.527 211.277 345.262 211.949 345.004V333.871H209.066C208.879 334.395 208.68 334.73 208.469 334.879ZM227.594 333.227L227.828 331.234H238.773V335.406L237.004 335.629C236.629 335.309 236.332 334.715 236.113 333.848H232.375V338.219H235.703C235.906 337.734 236.105 337.398 236.301 337.211L237.812 337.375V341.652L236.301 341.84C236.105 341.691 235.906 341.355 235.703 340.832H232.375V344.816C233.445 345.059 234.219 345.387 234.695 345.801L234.461 347.793H227.828L227.594 345.801C227.805 345.527 228.246 345.262 228.918 345.004V334.035C228.254 333.801 227.812 333.531 227.594 333.227ZM254.09 339.098C254.09 340.762 253.906 342.16 253.539 343.293C253.172 344.426 252.656 345.336 251.992 346.023C251.336 346.711 250.562 347.207 249.672 347.512C248.789 347.816 247.828 347.969 246.789 347.969C245.359 347.969 244.145 347.688 243.145 347.125C242.152 346.555 241.395 345.645 240.871 344.395C240.355 343.145 240.098 341.492 240.098 339.438C240.098 336.594 240.738 334.48 242.02 333.098C243.309 331.707 245.059 331.012 247.27 331.012C249.535 331.012 251.238 331.645 252.379 332.91C253.52 334.168 254.09 336.23 254.09 339.098ZM250.504 339.508C250.504 335.672 249.352 333.754 247.047 333.754C245.969 333.754 245.145 334.168 244.574 334.996C244.34 335.34 244.152 335.805 244.012 336.391C243.871 336.969 243.777 337.609 243.73 338.312C243.684 339.016 243.688 339.723 243.742 340.434C243.797 341.137 243.895 341.789 244.035 342.391C244.184 342.992 244.379 343.48 244.621 343.855C245.23 344.801 246.066 345.273 247.129 345.273C248.191 345.273 249.02 344.832 249.613 343.949C250.207 343.059 250.504 341.578 250.504 339.508ZM268.316 341.793C268.316 343.887 267.84 345.441 266.887 346.457C265.941 347.473 264.406 347.98 262.281 347.98C260.859 347.98 259.727 347.762 258.883 347.324C258.039 346.879 257.434 346.199 257.066 345.285C256.699 344.371 256.516 343.207 256.516 341.793V334.035C255.898 333.809 255.457 333.539 255.191 333.227L255.426 331.234H261.051L261.285 333.227C261.027 333.531 260.59 333.801 259.973 334.035V341.887C259.973 343.043 260.16 343.898 260.535 344.453C260.91 345 261.586 345.273 262.562 345.273C263.539 345.273 264.227 344.992 264.625 344.43C265.023 343.859 265.223 343.012 265.223 341.887V334.035C264.559 333.801 264.117 333.531 263.898 333.227L264.145 331.234H269.395L269.641 333.227C269.383 333.531 268.941 333.801 268.316 334.035V341.793ZM274.656 338.746V345.062C275.25 345.281 275.688 345.574 275.969 345.941L275.734 347.793H271.035L270.789 345.941C271.086 345.574 271.527 345.281 272.113 345.062V333.965C271.457 333.73 271 333.438 270.742 333.086L270.977 331.234H275.922L280.703 340.551C280.883 340.887 281.055 341.281 281.219 341.734C281.391 342.18 281.562 342.68 281.734 343.234L281.898 343.809L282.168 343.715C281.941 342.293 281.828 341.125 281.828 340.211V333.988C281.234 333.762 280.797 333.461 280.516 333.086L280.75 331.234H285.449L285.695 333.086C285.398 333.461 284.957 333.762 284.371 333.988V347.793H280.609L275.781 338.406C275.438 337.758 275.094 336.855 274.75 335.699L274.586 335.148L274.316 335.242C274.543 336.664 274.656 337.832 274.656 338.746ZM293.371 347.793H287.242L287.008 345.801C287.219 345.527 287.66 345.262 288.332 345.004V334.035C287.668 333.801 287.227 333.531 287.008 333.227L287.242 331.234H292.598C294.316 331.234 295.805 331.559 297.062 332.207C298.32 332.848 299.289 333.801 299.969 335.066C300.656 336.324 301 337.883 301 339.742C301 341.602 300.691 343.125 300.074 344.312C299.457 345.5 298.578 346.379 297.438 346.949C296.297 347.512 294.941 347.793 293.371 347.793ZM292.867 333.848H291.789V345.18H293.512C294.316 345.18 295.008 345.027 295.586 344.723C296.164 344.41 296.609 343.867 296.922 343.094C297.242 342.32 297.402 341.238 297.402 339.848C297.402 335.848 295.891 333.848 292.867 333.848Z" fill="black"/>
<defs>
<clipPath id="clip0_592_16538">
<rect width="45.1031" height="45.1031" fill="white" transform="translate(385.674 100.033) rotate(-105)"/>
</clipPath>
<clipPath id="clip1_592_16538">
<rect width="63" height="63" fill="white" transform="translate(267.514) rotate(15)"/>
</clipPath>
<clipPath id="clip2_592_16538">
<rect width="32" height="32" fill="white" transform="translate(42 206.793)"/>
</clipPath>
</defs>
</svg>
