<svg xmlns="http://www.w3.org/2000/svg" xmlns:xlink="http://www.w3.org/1999/xlink" width="500" zoomAndPan="magnify" viewBox="0 0 375 374.999991" height="500" preserveAspectRatio="xMidYMid meet" version="1.0"><defs><clipPath id="a2867a39b4"><path d="M 59.417969 54.875 L 315.902344 54.875 L 315.902344 320.65625 L 59.417969 320.65625 Z M 59.417969 54.875 " clip-rule="nonzero"/></clipPath></defs><g clip-path="url(#a2867a39b4)"><path fill="#100f0d" d="M 268.097656 320.71875 L 98.492188 320.71875 L 98.492188 276.851562 L 175.136719 187.546875 L 59.652344 187.546875 C 77.875 168.675781 171.527344 71.683594 187.699219 54.910156 C 196.792969 64.324219 201.964844 69.671875 220.480469 88.847656 L 220.480469 73.542969 L 277.878906 73.542969 L 277.878906 148.308594 L 315.761719 187.546875 L 247.664062 187.546875 L 179.8125 266.59375 L 268.097656 266.59375 L 268.097656 283.328125 L 143.410156 283.328125 L 239.988281 170.8125 L 276.351562 170.8125 L 261.164062 155.078125 L 261.164062 90.28125 L 237.195312 90.28125 L 237.195312 130.25 C 224.113281 116.691406 206.90625 98.855469 187.710938 78.988281 C 170.484375 96.835938 122.898438 146.121094 99.0625 170.8125 L 211.535156 170.8125 L 115.203125 283.054688 L 115.203125 303.980469 L 268.097656 303.980469 L 268.097656 320.71875 " fill-opacity="1" fill-rule="nonzero"/></g></svg>