<svg width="442" height="295" viewBox="0 0 442 295" fill="none" xmlns="http://www.w3.org/2000/svg">
<g clipPath="url(#clip0_592_16335)">
<path d="M384.297 58.132C383.994 58.2361 383.745 58.4563 383.604 58.7442C383.463 59.032 383.443 59.364 383.547 59.667L390.61 80.2343C390.991 81.3454 391.799 82.2595 392.854 82.7754C393.377 83.0308 393.945 83.1808 394.525 83.2168C395.106 83.2528 395.688 83.1741 396.238 82.9851L399.666 81.808L401.759 87.902C402.175 89.1141 403.056 90.1113 404.207 90.6741C405.359 91.2369 406.686 91.3192 407.899 90.9029C409.111 90.4866 410.108 89.6059 410.671 88.4544C411.234 87.3029 411.316 85.975 410.9 84.7629L408.807 78.6689L412.235 77.4917C413.346 77.1101 414.26 76.3028 414.776 75.2473C415.292 74.1917 415.367 72.9745 414.986 71.8634L407.923 51.2961C407.819 50.9931 407.598 50.7438 407.311 50.6031C407.023 50.4624 406.691 50.4418 406.388 50.5459L384.297 58.132ZM406.03 53.2235L411 67.6968L391.195 74.4981L386.224 60.0249L396.889 56.3626L398.328 60.5522C398.432 60.8553 398.652 61.1046 398.94 61.2453C399.228 61.386 399.56 61.4065 399.863 61.3025C400.166 61.1984 400.415 60.9782 400.556 60.6904C400.696 60.4025 400.717 60.0705 400.613 59.7675L399.174 55.5779L401.459 54.7931L403.944 62.0297C404.048 62.3327 404.269 62.582 404.557 62.7227C404.844 62.8634 405.176 62.884 405.479 62.7799C405.782 62.6759 406.032 62.4557 406.172 62.1678C406.313 61.8799 406.334 61.548 406.23 61.2449L403.745 54.0083L406.03 53.2235ZM391.979 76.7834L411.785 69.982L412.7 72.6481C413.061 73.6993 412.501 74.8455 411.45 75.2065L406.879 76.776C406.576 76.8801 406.327 77.1003 406.186 77.3881C406.046 77.676 406.025 78.008 406.129 78.311L408.614 85.5476C408.822 86.1537 408.781 86.8177 408.5 87.3934C408.219 87.9691 407.72 88.4095 407.114 88.6177C406.508 88.8258 405.844 88.7846 405.268 88.5032C404.692 88.2218 404.252 87.7233 404.044 87.1172L401.559 79.8806C401.455 79.5775 401.234 79.3282 400.947 79.1875C400.659 79.0468 400.327 79.0263 400.024 79.1303L395.453 80.6999C394.402 81.0609 393.256 80.5007 392.895 79.4495L391.979 76.7834Z" fill="black"/>
</g>
<path d="M1.23789 57.4835L4.50213 54.2202C6.29845 52.4646 8.34368 52.6094 10.1618 54.613L31.7877 78.1592C32.6754 77.5393 33.5007 77.5601 34.5134 77.7664L36.7233 78.2207L38.1903 76.7538L38.0862 75.6597C37.9423 74.524 38.2726 73.6561 39.326 72.6027L41.0608 70.8887C42.1142 69.8145 43.5187 69.753 44.5304 70.7648L51.409 77.6425C52.4208 78.6551 52.3592 80.0388 51.3049 81.113L49.5701 82.8478C48.5177 83.9012 47.629 84.2731 46.5132 84.1075L45.3983 83.9845L43.9938 85.388L44.6137 87.8052C44.9023 89.0024 44.5928 89.9735 43.2915 91.254L38.1903 96.3354C30.6917 103.791 21.0883 103.564 14.5201 96.9345C13.6106 96.0259 13.5282 94.7861 14.1065 93.8775C14.5816 93.092 15.5933 92.6178 16.977 92.9689C20.1788 93.7734 23.3805 93.5264 26.5198 91.3988L25.1977 88.0522C24.7018 86.8133 24.7434 85.8016 25.2393 84.8722L1.63066 63.1422C-0.352105 61.3061 -0.579248 59.3026 1.23884 57.4845M17.8042 96.1082C23.443 100.323 30.4655 99.6412 35.5469 94.5599L41.1024 89.045C41.5984 88.5491 41.6608 88.1573 41.516 87.5374L40.7314 84.2324L44.0562 80.9067L46.0816 81.0931C46.6797 81.1546 46.8652 81.114 47.3612 80.6388L48.6625 79.3167L42.859 73.4924L41.5368 74.8136C41.0617 75.2887 41.0201 75.4751 41.0825 76.0742L41.268 78.1185L37.9641 81.4234L34.5352 80.7628C33.9361 80.6388 33.6266 80.6388 33.1098 81.1546L28.5234 85.76C28.0275 86.2559 27.965 86.5455 28.2338 87.2061L30.2592 92.0395C26.871 95.282 22.3887 97.0793 18.072 95.6946C17.8865 95.6331 17.7625 95.6748 17.7001 95.7571C17.6386 95.8603 17.6386 95.9634 17.8042 96.1073M3.92386 58.9713C2.87048 60.0247 3.24243 60.6654 3.94373 61.3061L27.1398 82.7049L29.7216 80.1022L8.2604 56.9866C7.61966 56.2844 6.81425 56.0781 5.94638 56.9251L3.92386 58.9713Z" fill="black"/>
<g clipPath="url(#clip1_592_16335)">
<path d="M276.795 16.282C277.155 14.9371 278.035 13.7904 279.241 13.0942C280.446 12.398 281.879 12.2094 283.224 12.5697L308.58 19.3637C309.925 19.7241 311.072 20.604 311.768 21.8098C312.464 23.0157 312.653 24.4487 312.292 25.7936L310.933 30.8648C310.573 32.2097 309.693 33.3564 308.487 34.0526C307.282 34.7488 305.849 34.9374 304.504 34.5771L279.148 27.7831C277.803 27.4227 276.656 26.5428 275.96 25.337C275.264 24.1311 275.075 22.6981 275.436 21.3532L276.795 16.282Z" stroke="black" strokeWidth="2" strokeLinecap="round" strokeLinejoin="round"/>
<path d="M311.613 28.3294L314.149 29.0088C315.493 29.3692 316.64 30.2491 317.336 31.455C318.033 32.6608 318.221 34.0938 317.861 35.4388C316.96 38.8011 314.76 41.6679 311.746 43.4083C308.731 45.1488 305.148 45.6205 301.786 44.7195L289.108 41.3225L287.749 46.3936M281.999 47.5704C282.179 46.8979 282.619 46.3246 283.222 45.9765C283.825 45.6284 284.541 45.5341 285.214 45.7142L290.285 47.073C290.958 47.2532 291.531 47.6932 291.879 48.2961C292.227 48.899 292.321 49.6155 292.141 50.288L289.424 60.4302C289.243 61.1027 288.803 61.676 288.201 62.0241C287.598 62.3722 286.881 62.4666 286.209 62.2864L281.138 60.9276C280.465 60.7474 279.892 60.3074 279.544 59.7045C279.196 59.1016 279.101 58.3851 279.281 57.7126L281.999 47.5704Z" stroke="black" strokeWidth="2" strokeLinecap="round" strokeLinejoin="round"/>
</g>
<g clipPath="url(#clip2_592_16335)">
<path d="M44.6666 217.306L49.6617 215.968C50.7818 215.668 51.9454 216.339 52.2459 217.46L52.6649 219.019C52.7214 218.976 52.7869 218.946 52.8565 218.932C52.9261 218.917 52.998 218.919 53.0668 218.937C53.1356 218.954 53.1997 218.987 53.2541 219.032C53.3085 219.078 53.352 219.135 53.3812 219.2L53.5052 219.507L54.9062 219.132L54.8457 218.983C54.7229 218.716 54.8633 218.393 55.1501 218.316C55.3687 218.257 55.6039 218.37 55.7034 218.578L55.8274 218.885L57.2148 218.514L57.1543 218.365C57.0315 218.097 57.1718 217.774 57.4587 217.697C57.6773 217.639 57.9124 217.752 58.012 217.959L58.1369 218.267L58.7931 218.09L58.1974 215.87C58.1233 215.602 58.1033 215.321 58.1386 215.045C58.1739 214.769 58.2637 214.503 58.4029 214.262C58.5421 214.021 58.7278 213.81 58.9493 213.641C59.1707 213.473 59.4235 213.35 59.6929 213.28L64.6885 211.941C65.8086 211.641 66.9717 212.313 67.2727 213.433L67.682 214.958C67.7882 214.934 67.8995 214.947 67.9969 214.996C68.0944 215.044 68.1719 215.125 68.2162 215.225L68.3411 215.533L69.7413 215.157L69.6808 215.008C69.5579 214.741 69.6983 214.418 69.9852 214.341C70.2037 214.282 70.4389 214.395 70.5384 214.603L70.6633 214.91L71.722 214.627C72.1026 214.525 72.4995 214.499 72.8902 214.55C73.2808 214.601 73.6575 214.729 73.9987 214.926C74.3399 215.123 74.639 215.386 74.8788 215.698C75.1187 216.011 75.2946 216.368 75.3966 216.748L76.172 219.645C76.3777 220.412 76.2707 221.23 75.8745 221.918C75.4784 222.606 74.8254 223.11 74.0587 223.317L74.2601 223.815C74.3829 224.082 74.2425 224.405 73.9557 224.482C73.8474 224.512 73.7321 224.501 73.6306 224.453C73.5291 224.405 73.4482 224.323 73.4024 224.22L73.1367 223.564L71.7365 223.94L71.9378 224.437C72.0607 224.704 71.9203 225.027 71.6334 225.104C71.5252 225.134 71.4098 225.124 71.3084 225.076C71.2069 225.028 71.1259 224.945 71.0802 224.842L70.8144 224.187L70.2029 224.35L70.8053 226.592C71.1055 227.713 70.4335 228.877 69.3128 229.178L64.3132 230.517C63.7727 230.66 63.1976 230.583 62.7135 230.304C62.2293 230.024 61.8754 229.565 61.7289 229.025L61.4115 227.843C61.3052 227.868 61.1936 227.855 61.0957 227.807C60.9979 227.758 60.92 227.677 60.8754 227.578L60.6102 226.921L59.2237 227.292L59.425 227.79C59.5479 228.057 59.4075 228.38 59.1206 228.457C59.0124 228.487 58.897 228.476 58.7956 228.428C58.6941 228.38 58.6131 228.298 58.5674 228.195L58.3016 227.539L56.9014 227.915L57.1028 228.412C57.2256 228.679 57.0853 229.002 56.7984 229.079C56.6901 229.109 56.5748 229.099 56.4733 229.051C56.3718 229.003 56.2909 228.92 56.2451 228.817L55.9794 228.162L55.1767 228.376L55.779 230.619C56.0792 231.739 55.4072 232.903 54.2865 233.204L49.2869 234.543C48.7464 234.686 48.1714 234.61 47.6872 234.33C47.2031 234.051 46.8491 233.591 46.7027 233.051L43.1711 219.896C43.097 219.628 43.0771 219.348 43.1123 219.072C43.1476 218.795 43.2375 218.529 43.3766 218.288C43.5158 218.047 43.7015 217.836 43.923 217.667C44.1445 217.499 44.3972 217.376 44.6666 217.306ZM54.6595 226.446L55.2255 226.294L53.4139 221.811L54.6595 226.446ZM45.1687 219.242C45.1433 219.249 45.1217 219.266 45.1086 219.289C45.0954 219.311 45.0919 219.338 45.0987 219.364L45.1021 219.374L46.0955 223.073L51.3074 221.676L50.3144 217.978C50.3103 217.964 50.3036 217.951 50.2946 217.94C50.2856 217.929 50.2744 217.92 50.2618 217.913C50.2496 217.905 50.236 217.9 50.2219 217.898C50.2077 217.896 50.1932 217.896 50.1793 217.9L45.1796 219.24L45.1687 219.242ZM51.5662 222.642L46.3548 224.038L47.3785 227.853L52.5912 226.456L51.5662 222.642ZM47.6373 228.819L48.6356 232.534C48.6395 232.547 48.6462 232.56 48.6553 232.571C48.6643 232.583 48.6755 232.592 48.6881 232.599C48.7184 232.616 48.7475 232.618 48.7707 232.612L53.7703 231.272C53.7931 231.267 53.8173 231.251 53.8348 231.22C53.8424 231.208 53.8475 231.194 53.8497 231.18C53.852 231.166 53.8513 231.152 53.8478 231.138L52.8505 227.421L47.6373 228.819ZM58.8908 220.135L60.2377 223.468L59.3124 220.023L58.8908 220.135ZM69.6849 222.419L70.0605 222.318L68.8607 219.349L69.6849 222.419ZM56.1476 226.046L57.5477 225.671L55.6601 221.001L54.2599 221.376L56.1476 226.046ZM56.5822 220.754L58.4698 225.424L59.8563 225.053L57.9687 220.382L56.5822 220.754ZM69.095 217.401L70.9826 222.071L72.3828 221.696L70.4952 217.026L69.095 217.401ZM71.4172 216.779L73.3048 221.449L73.5338 221.389C73.6608 221.355 73.7798 221.296 73.8841 221.216C73.9884 221.136 74.0759 221.036 74.1416 220.922C74.2073 220.809 74.2499 220.683 74.267 220.553C74.2841 220.422 74.2754 220.29 74.2413 220.163L73.4636 217.266C73.395 217.01 73.2274 216.792 72.9977 216.659C72.7681 216.526 72.4952 216.491 72.2391 216.559L71.4172 216.779ZM60.195 215.216C60.1696 215.223 60.148 215.24 60.1348 215.262C60.1217 215.285 60.1182 215.312 60.125 215.337L60.1284 215.347L61.1218 219.047L66.3337 217.65L65.3406 213.952C65.3366 213.938 65.3299 213.925 65.3209 213.914C65.3119 213.903 65.3007 213.893 65.2881 213.887C65.2759 213.879 65.2623 213.874 65.2481 213.872C65.2339 213.869 65.2195 213.87 65.2055 213.874L60.2059 215.213L60.195 215.216ZM66.5925 218.615L61.3811 220.012L62.4048 223.827L67.6175 222.43L66.5925 218.615ZM62.6635 224.792L63.6619 228.507C63.6658 228.521 63.6725 228.534 63.6815 228.545C63.6906 228.556 63.7017 228.566 63.7144 228.572C63.7447 228.59 63.7737 228.592 63.797 228.585L68.7966 227.246C68.8193 227.24 68.8436 227.224 68.8616 227.193C68.869 227.181 68.8739 227.168 68.8761 227.153C68.8782 227.139 68.8776 227.125 68.8741 227.111L67.8768 223.395L62.6635 224.792Z" fill="black"/>
</g>
<path d="M415.877 255.756C415.682 255.808 415.479 255.821 415.279 255.795C415.079 255.769 414.887 255.703 414.712 255.603C414.538 255.502 414.385 255.368 414.262 255.208C414.139 255.048 414.05 254.865 413.997 254.671L410.068 240.007C409.963 239.614 410.018 239.195 410.221 238.843C410.424 238.49 410.759 238.233 411.152 238.128C411.545 238.022 411.963 238.077 412.316 238.28C412.668 238.484 412.925 238.818 413.031 239.211L416.96 253.875C417.013 254.07 417.026 254.273 417 254.473C416.974 254.673 416.909 254.865 416.808 255.04C416.708 255.215 416.573 255.368 416.414 255.491C416.254 255.613 416.071 255.703 415.877 255.756ZM410.476 262.009C409.374 261.377 408.409 260.533 407.636 259.525C406.863 258.518 406.297 257.367 405.971 256.139L402.236 242.2C402.13 241.812 402.102 241.406 402.154 241.006C402.207 240.606 402.338 240.221 402.54 239.872L404.14 237.102L401.346 235.489C400.767 235.154 400.313 234.639 400.054 234.023C400.026 233.958 400.003 233.892 399.985 233.824L399.423 231.729C399.213 230.944 399.324 230.107 399.73 229.403C400.137 228.699 400.806 228.185 401.592 227.974L406.493 226.662L401.08 206.493C401.028 206.298 401.014 206.095 401.041 205.896C401.067 205.696 401.132 205.503 401.233 205.329C401.334 205.154 401.468 205.001 401.628 204.879C401.788 204.756 401.97 204.666 402.165 204.614C402.36 204.562 402.563 204.548 402.762 204.575C402.962 204.601 403.155 204.666 403.329 204.767C403.504 204.868 403.657 205.002 403.779 205.162C403.902 205.322 403.992 205.504 404.044 205.699L409.45 225.875L414.349 224.564C414.738 224.46 415.144 224.433 415.543 224.486C415.943 224.538 416.328 224.669 416.677 224.87C417.025 225.072 417.331 225.34 417.576 225.66C417.822 225.979 418.002 226.344 418.106 226.733L418.667 228.828C418.685 228.895 418.699 228.964 418.708 229.033C418.788 229.694 418.652 230.362 418.322 230.94L416.709 233.734L419.481 235.334C419.83 235.535 420.136 235.803 420.381 236.122C420.626 236.441 420.805 236.806 420.909 237.194L424.643 251.135C425.137 252.981 425.073 254.933 424.458 256.742C423.844 258.552 422.707 260.139 421.191 261.303C419.674 262.467 417.847 263.155 415.94 263.281C414.033 263.406 412.131 262.964 410.476 262.009ZM412.009 259.353C413.139 260.006 414.438 260.308 415.74 260.223C417.043 260.138 418.291 259.668 419.326 258.874C420.362 258.079 421.139 256.996 421.558 255.76C421.978 254.524 422.022 253.191 421.684 251.93L417.948 237.991L415.175 236.39C414.471 235.983 413.957 235.313 413.746 234.528C413.536 233.742 413.646 232.905 414.053 232.2L415.655 229.424L415.146 227.519L402.387 230.937L402.898 232.843L405.673 234.445C406.378 234.852 406.892 235.522 407.102 236.308C407.313 237.094 407.203 237.931 406.796 238.635L405.196 241.406L408.933 255.346C409.155 256.184 409.541 256.97 410.069 257.658C410.598 258.345 411.257 258.922 412.009 259.353Z" fill="black"/>
<path d="M363.71 145.125L355.88 137.295C355.749 137.163 355.583 137.07 355.401 137.027C355.22 136.984 355.03 136.993 354.853 137.052C354.676 137.111 354.519 137.219 354.4 137.362C354.282 137.506 354.205 137.68 354.18 137.865L353.45 143.005L351.45 145.005L351.12 144.815C350.905 144.71 350.659 144.686 350.427 144.747C350.196 144.809 349.994 144.951 349.859 145.148C349.723 145.345 349.663 145.585 349.689 145.823C349.715 146.061 349.825 146.281 350 146.445L348.85 147.615L348.52 147.425C348.305 147.326 348.062 147.307 347.835 147.37C347.607 147.434 347.409 147.576 347.276 147.771C347.143 147.966 347.084 148.202 347.108 148.437C347.133 148.672 347.24 148.891 347.41 149.055L346.24 150.215L345.92 150.005C345.806 149.939 345.68 149.896 345.549 149.879C345.418 149.862 345.285 149.87 345.158 149.905C345.031 149.939 344.911 149.998 344.807 150.079C344.703 150.16 344.615 150.26 344.55 150.375C344.437 150.581 344.4 150.82 344.446 151.05C344.492 151.281 344.617 151.488 344.8 151.635L344.29 152.145C344.197 152.239 344.126 152.351 344.08 152.475C344.029 152.595 344.002 152.724 344 152.855V156.005C344 156.27 344.105 156.525 344.293 156.712C344.48 156.9 344.735 157.005 345 157.005H348.13C348.261 157.003 348.39 156.976 348.51 156.925C348.634 156.879 348.746 156.808 348.84 156.715L350.54 155.005L350.87 155.195C350.984 155.261 351.109 155.305 351.239 155.323C351.37 155.341 351.502 155.333 351.63 155.299C351.757 155.266 351.876 155.208 351.981 155.128C352.086 155.048 352.174 154.949 352.24 154.835C352.357 154.629 352.397 154.389 352.353 154.156C352.309 153.923 352.184 153.714 352 153.565L353.17 152.405L353.5 152.595C353.649 152.68 353.818 152.724 353.99 152.725C354.181 152.708 354.364 152.636 354.515 152.517C354.667 152.399 354.781 152.24 354.844 152.058C354.908 151.877 354.917 151.681 354.872 151.494C354.827 151.307 354.729 151.138 354.59 151.005L355.76 149.845L356.09 150.035C356.239 150.12 356.408 150.164 356.58 150.165C356.784 150.161 356.982 150.095 357.148 149.976C357.313 149.856 357.438 149.688 357.506 149.496C357.573 149.303 357.58 149.094 357.526 148.897C357.471 148.701 357.357 148.525 357.2 148.395L357.99 147.605L363.14 146.875C363.325 146.849 363.499 146.771 363.642 146.651C363.785 146.531 363.892 146.373 363.95 146.195C364.019 146.013 364.032 145.814 363.99 145.624C363.947 145.434 363.85 145.261 363.71 145.125ZM347.72 155.005H346V153.285L346.57 152.715L348.75 154.005L347.72 155.005ZM350.21 152.505L348 151.255L349.14 150.115L351.31 151.365L350.21 152.505ZM352.82 149.905L350.64 148.645L351.79 147.505L354 148.755L352.82 149.905ZM355.43 147.295L353.25 146.005L354.39 144.865L356.11 146.585L355.43 147.295ZM357.88 145.555L355.45 143.125L355.88 140.125L360.88 145.125L357.88 145.555Z" fill="black"/>
<path d="M90 164V36C90 23 103 23 103 23M90 44.6667H129M90 62H129M90 79.3333H129M90 96.6667H129M142 107.5V38.1667C142 25.1667 155 25.1667 155 25.1667" stroke="black" strokeWidth="4" strokeLinecap="round" strokeLinejoin="round"/>
<path d="M290.133 267C290.467 274 286.733 288 269.133 288C251.533 288 175.133 288 139.133 288C134.133 288.833 124.133 287 124.133 273C124.133 263.199 124.133 221.293 124.133 184M287.133 230.5C287.133 207.167 287.133 157.3 287.133 144.5C287.133 131.699 275.133 127.166 269.133 126.5C231.133 126.5 151.933 126.5 139.133 126.5C126.333 126.5 123.8 136.5 124.133 141.5C124.133 152.896 124.133 168.025 124.133 184M124.133 184H283.633M190.633 211.5L171.633 230.5M171.633 211.5L190.633 230.5M239.633 211.5L220.633 230.5M220.633 211.5L239.633 230.5" stroke="black" strokeWidth="12" strokeLinecap="round" strokeLinejoin="round"/>
<path d="M217.633 252.5C217.633 261.001 212.243 266.5 207.133 266.5C202.022 266.5 196.633 261.001 196.633 252.5C196.633 243.999 202.022 238.5 207.133 238.5C212.243 238.5 217.633 243.999 217.633 252.5Z" stroke="black" strokeWidth="7"/>
<circle cx="152.133" cy="156" r="5" fill="black"/>
<circle cx="181.133" cy="156" r="5" fill="black"/>
<circle cx="210.133" cy="156" r="5" fill="black"/>
<path d="M252 101.374C252 109.889 245.566 114 205.792 114C166.019 114 159 108.421 159 101.374H164.264C161.631 78.9012 170.601 65.5134 180.934 58.1813C187.125 53.7882 193.806 51.5691 198.773 50.8723V46.1745V45H211.934L211.934 51.2247H213.25C219.824 52.5919 225.366 54.5286 229.773 57.4275C247.324 68.9718 249.191 90.1878 247.321 101.374H252Z" fill="#00DF38"/>
<path d="M247.321 101.374H252C252 109.889 245.566 114 205.792 114C166.019 114 159 108.421 159 101.374H164.264M247.321 101.374H164.264M247.321 101.374C249.191 90.1878 247.324 68.9718 229.773 57.4275M164.264 101.374C161.631 78.9012 170.601 65.5134 180.934 58.1813M180.934 58.1813C187.125 53.7882 193.806 51.5691 198.773 50.8723V45M180.934 58.1813L187.368 84.9319M229.773 57.4275C225.366 54.5286 219.824 52.5919 213.25 51.2247H211.934M229.773 57.4275L224.217 84.9319M198.773 45H211.934C211.934 47.1982 211.934 49.2603 211.934 51.2247M198.773 45V46.1745V84.9319H211.934C211.934 71.5358 211.934 63.1955 211.934 51.2247" stroke="black" strokeWidth="6" strokeLinecap="round" strokeLinejoin="round"/>
<defs>
<clipPath id="clip0_592_16335">
<rect width="45.1031" height="45.1031" fill="white" transform="translate(385.674 100.24) rotate(-105)"/>
</clipPath>
<clipPath id="clip1_592_16335">
<rect width="63" height="63" fill="white" transform="translate(267.514 0.207031) rotate(15)"/>
</clipPath>
<clipPath id="clip2_592_16335">
<rect width="32" height="32" fill="white" transform="translate(42 207)"/>
</clipPath>
</defs>
</svg>
