<svg width="31" height="31" viewBox="0 0 31 31" fill="none" xmlns="http://www.w3.org/2000/svg">
<path d="M15.9283 1.26667C15.9283 1.96623 14.8426 -0.180952 13.7569 0.904762C12.6712 -0.361905 11.5854 1.96623 11.5854 1.26667C11.5854 0.567106 12.5576 0 13.7569 0C14.9561 0 15.9283 0.567106 15.9283 1.26667Z" fill="#CCCCCC"/>
<path d="M8.31012 17.7324C5.60284 17.7979 3.15947 20.2812 2.26667 21.5311C1.84444 22.074 1 23.8111 1 26.4168C1 29.0225 3.53333 30.0359 4.8 30.2168H13.6667V20.4454C13.6266 20.3893 13.5808 20.3287 13.5295 20.2644C13.5149 20.2644 13.5003 20.2644 13.4857 20.2644C10.5875 20.2644 8.2381 19.2923 8.2381 18.093C8.2381 17.9702 8.26275 17.8497 8.31012 17.7324Z" fill="#CCCCCC"/>
<path d="M19.0232 17.7324C21.7305 17.7979 24.1739 20.2812 25.0667 21.5311C25.4889 22.074 26.3333 23.8111 26.3333 26.4168C26.3333 29.0225 23.8 30.0359 22.5333 30.2168H13.6667V20.4454C13.7067 20.3893 13.7525 20.3287 13.8038 20.2644C13.8184 20.2644 13.833 20.2644 13.8476 20.2644C16.7458 20.2644 19.0952 19.2923 19.0952 18.093C19.0952 17.9702 19.0706 17.8497 19.0232 17.7324Z" fill="#CCCCCC"/>
<path d="M13.6667 30.2168H4.8C3.53333 30.0359 1 29.0225 1 26.4168C1 23.8111 1.84444 22.074 2.26667 21.5311C3.15947 20.2812 5.60284 17.7979 8.31012 17.7324C8.26275 17.8497 8.2381 17.9702 8.2381 18.093C8.2381 19.2923 10.5875 20.2644 13.4857 20.2644C13.5003 20.2644 13.5149 20.2644 13.5295 20.2644C13.5808 20.3287 13.6266 20.3893 13.6667 20.4454M13.6667 30.2168V20.4454M13.6667 30.2168H22.5333C23.8 30.0359 26.3333 29.0225 26.3333 26.4168C26.3333 23.8111 25.4889 22.074 25.0667 21.5311C24.1739 20.2812 21.7305 17.7979 19.0232 17.7324C19.0706 17.8497 19.0952 17.9702 19.0952 18.093C19.0952 19.2923 16.7458 20.2644 13.8476 20.2644C13.833 20.2644 13.8184 20.2644 13.8038 20.2644C13.7525 20.3287 13.7067 20.3893 13.6667 20.4454" stroke="#CCCCCC"/>
<path fill-rule="evenodd" clip-rule="evenodd" d="M10.6093 1.51723C8.79827 2.81645 7.39369 5.01209 7.60805 7.05657L6.88118 7.32765C6.43146 7.32765 6.06689 7.69221 6.06689 8.14193C6.06689 8.34816 6.14356 8.53648 6.26994 8.67995C6.45054 8.57862 6.65887 8.52083 6.8807 8.52083H20.4521C20.6742 8.52083 20.8828 8.57876 21.0635 8.68031C21.1901 8.5368 21.2669 8.34833 21.2669 8.14193C21.2669 7.69221 20.9023 7.32765 20.4526 7.32765L19.9067 7.05657C19.9067 4.91824 18.4385 2.61454 16.5827 1.34407L15.9353 4.14945C15.8421 4.55305 15.4394 4.80474 15.0358 4.7116C14.6322 4.61846 14.3806 4.21576 14.4737 3.81216L15.2082 0.629378C14.7271 0.456415 14.2384 0.361328 13.7574 0.361328C13.1748 0.361328 12.5677 0.50081 11.9715 0.749193L12.6783 3.81216C12.7715 4.21576 12.5198 4.61846 12.1162 4.7116C11.7126 4.80474 11.3099 4.55305 11.2167 4.14945L10.6093 1.51723ZM8.29166 11.0208H7.74199C8.33754 14.8568 10.8045 17.7324 13.7574 17.7324C16.7102 17.7324 19.1772 14.8568 19.7728 11.0208H19.2231C18.9754 12.5375 18.4215 13.8816 17.6679 14.9232C16.6281 16.3607 15.2386 17.1895 13.7574 17.1895C12.2762 17.1895 10.8867 16.3607 9.84682 14.9232C9.09327 13.8816 8.53932 12.5375 8.29166 11.0208Z" fill="#CCCCCC"/>
<path d="M24.4084 20.8774L24.2619 20.7306H24.0545H23.8062C24.5908 19.6051 25.0501 18.2384 25.0501 16.7709C25.0501 12.9369 21.9423 9.8291 18.1083 9.8291C14.2743 9.8291 11.1665 12.9369 11.1665 16.7709C11.1665 20.6049 14.2743 23.7127 18.1083 23.7127C19.5758 23.7127 20.9425 23.2534 22.068 22.4688V22.7171V22.9245L22.2148 23.071L27.17 28.0163L27.5235 28.3692L27.8767 28.016L29.3534 26.5393L29.7066 26.1861L29.3537 25.8326L24.4084 20.8774ZM18.1083 20.7306C15.9167 20.7306 14.1486 18.9624 14.1486 16.7709C14.1486 14.5793 15.9167 12.8112 18.1083 12.8112C20.2998 12.8112 22.068 14.5793 22.068 16.7709C22.068 18.9624 20.2998 20.7306 18.1083 20.7306Z" fill="#CCCCCC" stroke="white"/>
</svg>
