<svg width="452" height="294" viewBox="0 0 452 294" fill="none" xmlns="http://www.w3.org/2000/svg">
<g clip-path="url(#clip0_627_15518)">
<path d="M394.296 57.925C393.993 58.0291 393.744 58.2493 393.603 58.5371C393.462 58.825 393.442 59.157 393.546 59.46L400.609 80.0272C400.99 81.1384 401.798 82.0524 402.853 82.5683C403.376 82.8238 403.944 82.9738 404.524 83.0098C405.105 83.0457 405.687 82.967 406.237 82.7781L409.665 81.6009L411.758 87.6949C412.174 88.9071 413.055 89.9043 414.206 90.467C415.358 91.0298 416.685 91.1121 417.898 90.6959C419.11 90.2796 420.107 89.3989 420.67 88.2474C421.233 87.0959 421.315 85.768 420.899 84.5558L418.806 78.4618L422.234 77.2847C423.345 76.9031 424.259 76.0958 424.775 75.0402C425.291 73.9847 425.366 72.7675 424.985 71.6563L417.922 51.0891C417.818 50.7861 417.597 50.5368 417.31 50.3961C417.022 50.2554 416.69 50.2348 416.387 50.3389L394.296 57.925ZM416.029 53.0165L420.999 67.4897L401.194 74.2911L396.223 59.8179L406.888 56.1556L408.327 60.3452C408.431 60.6483 408.651 60.8975 408.939 61.0382C409.227 61.1789 409.559 61.1995 409.862 61.0954C410.165 60.9914 410.414 60.7712 410.555 60.4833C410.695 60.1955 410.716 59.8635 410.612 59.5604L409.173 55.3708L411.458 54.586L413.943 61.8227C414.047 62.1257 414.268 62.375 414.556 62.5157C414.843 62.6564 415.175 62.677 415.478 62.5729C415.781 62.4688 416.031 62.2486 416.171 61.9608C416.312 61.6729 416.333 61.3409 416.229 61.0379L413.744 53.8013L416.029 53.0165ZM401.978 76.5763L421.784 69.775L422.699 72.4411C423.06 73.4923 422.5 74.6384 421.449 74.9994L416.878 76.569C416.575 76.6731 416.326 76.8932 416.185 77.1811C416.045 77.469 416.024 77.801 416.128 78.104L418.613 85.3406C418.821 85.9467 418.78 86.6106 418.499 87.1864C418.218 87.7621 417.719 88.2025 417.113 88.4106C416.507 88.6188 415.843 88.5776 415.267 88.2962C414.691 88.0148 414.251 87.5162 414.043 86.9102L411.558 79.6735C411.454 79.3705 411.233 79.1212 410.946 78.9805C410.658 78.8398 410.326 78.8192 410.023 78.9233L405.452 80.4928C404.401 80.8538 403.255 80.2937 402.894 79.2424L401.978 76.5763Z" fill="black"/>
</g>
<path d="M39.4987 108.933L34.8831 108.933C32.3715 108.904 31.0277 107.355 31.1588 104.653L32.5167 72.7114C31.4506 72.522 30.8818 71.9237 30.3116 71.0617L29.0702 69.1779L26.9956 69.1779L26.2956 70.0251C25.5942 70.9299 24.747 71.31 23.2573 71.31L20.8186 71.2953C19.3142 71.31 18.2776 70.3604 18.2776 68.9296L18.2769 59.2024C18.2776 57.7709 19.2995 56.836 20.8046 56.8219L23.2579 56.8219C24.747 56.8213 25.6384 57.1867 26.3103 58.0928L27.0116 58.9682L28.9972 58.9688L30.2681 56.8213C30.9105 55.7706 31.816 55.3028 33.6417 55.3175L40.8419 55.3316C51.4163 55.3617 58.0463 62.3129 58.0028 71.6453C58.0035 72.9309 57.185 73.8658 56.1337 74.0994C55.2423 74.3189 54.1916 73.9387 53.4615 72.7121C51.7663 69.8792 49.3276 67.7899 45.6034 67.0745L44.1719 70.3758C43.6466 71.6025 42.9017 72.2884 41.8939 72.5949L43.2223 104.654C43.326 107.355 42.0699 108.932 39.4987 108.932M55.0964 69.9073C54.0892 62.94 48.6417 58.4562 41.4555 58.4562L33.6276 58.4274C32.9262 58.4274 32.605 58.6603 32.2691 59.201L30.4869 62.0928L25.7843 62.0934L24.484 60.5295C24.1045 60.063 23.9446 59.9606 23.2579 59.9459L21.4028 59.9606L21.3881 68.1827L23.2573 68.1834C23.9292 68.1834 24.0905 68.081 24.4699 67.6132L25.7843 66.0365L30.4575 66.0359L32.415 68.9276C32.7509 69.4389 32.9698 69.6577 33.6999 69.6584L40.1994 69.645C40.9008 69.645 41.1497 69.4844 41.4268 68.8272L43.4124 63.9773C48.101 64.0804 52.5413 65.979 54.6145 70.0104C54.7022 70.1851 54.8193 70.2433 54.9217 70.2292C55.0382 70.1998 55.1111 70.1268 55.0957 69.908M38.6515 105.982C40.1412 105.982 40.3312 105.266 40.2884 104.317L39.0175 72.7837L35.3515 72.7984L34.1817 104.319C34.1382 105.269 34.5618 105.984 35.7745 105.999L38.6515 105.982Z" fill="black"/>
<g clip-path="url(#clip1_627_15518)">
<path d="M286.794 16.075C287.154 14.7301 288.034 13.5834 289.24 12.8872C290.445 12.191 291.879 12.0023 293.223 12.3627L318.579 19.1567C319.924 19.5171 321.071 20.397 321.767 21.6028C322.463 22.8087 322.652 24.2417 322.291 25.5866L320.933 30.6577C320.572 32.0027 319.692 33.1494 318.486 33.8456C317.281 34.5418 315.848 34.7304 314.503 34.37L289.147 27.576C287.802 27.2157 286.655 26.3358 285.959 25.1299C285.263 23.9241 285.074 22.4911 285.435 21.1461L286.794 16.075Z" stroke="black" stroke-width="2" stroke-linecap="round" stroke-linejoin="round"/>
<path d="M321.612 28.1224L324.148 28.8018C325.492 29.1622 326.639 30.0421 327.335 31.2479C328.032 32.4538 328.22 33.8868 327.86 35.2317C326.959 38.5941 324.759 41.4608 321.745 43.2013C318.73 44.9418 315.147 45.4134 311.785 44.5125L299.107 41.1155L297.749 46.1866M291.998 47.3634C292.178 46.6909 292.618 46.1175 293.221 45.7694C293.824 45.4214 294.54 45.327 295.213 45.5072L300.284 46.866C300.957 47.0462 301.53 47.4861 301.878 48.0891C302.226 48.692 302.32 49.4085 302.14 50.081L299.423 60.2232C299.242 60.8957 298.802 61.469 298.2 61.8171C297.597 62.1652 296.88 62.2595 296.208 62.0793L291.137 60.7205C290.464 60.5404 289.891 60.1004 289.543 59.4975C289.195 58.8946 289.1 58.1781 289.28 57.5056L291.998 47.3634Z" stroke="black" stroke-width="2" stroke-linecap="round" stroke-linejoin="round"/>
</g>
<g clip-path="url(#clip2_627_15518)">
<path d="M76.9496 211.388L76.9489 216.559C76.9489 217.719 76 218.669 74.8389 218.669L73.2253 218.67C73.2522 218.736 73.264 218.807 73.2597 218.878C73.2554 218.949 73.2352 219.018 73.2005 219.08C73.1659 219.142 73.1177 219.195 73.0595 219.236C73.0014 219.277 72.9348 219.304 72.8647 219.315L72.5359 219.356L72.5352 220.806L72.695 220.786C72.9849 220.737 73.2607 220.956 73.2607 221.253C73.2607 221.479 73.091 221.677 72.8647 221.719L72.5359 221.76L72.5352 223.196L72.695 223.176C72.9849 223.127 73.2607 223.346 73.2607 223.643C73.2607 223.869 73.091 224.067 72.8647 224.109L72.5352 224.15L72.5359 224.83L74.8347 224.829C75.113 224.827 75.389 224.88 75.6465 224.986C75.9041 225.091 76.1381 225.247 76.3349 225.444C76.5317 225.641 76.6874 225.875 76.793 226.132C76.8985 226.39 76.9518 226.666 76.9496 226.944L76.9496 232.116C76.9496 233.276 76 234.225 74.8396 234.226L73.2607 234.227C73.2567 234.336 73.215 234.44 73.1428 234.521C73.0705 234.603 72.9722 234.657 72.8647 234.674L72.5352 234.715L72.5352 236.164L72.695 236.144C72.9849 236.095 73.2607 236.314 73.2607 236.611C73.2607 236.837 73.091 237.035 72.8647 237.078L72.5352 237.119L72.5352 238.215C72.5352 238.609 72.4576 238.999 72.3069 239.363C72.1561 239.727 71.9351 240.058 71.6565 240.336C71.3779 240.615 71.0471 240.836 70.6831 240.987C70.3191 241.138 69.9289 241.215 69.5349 241.215L66.5361 241.214C65.7418 241.214 64.9799 240.9 64.4175 240.339C63.8551 239.778 63.538 239.017 63.5358 238.223L63.0034 238.288C62.7135 238.338 62.4377 238.119 62.4377 237.822C62.4371 237.709 62.4767 237.601 62.5493 237.515C62.6219 237.429 62.7228 237.373 62.8337 237.355L63.5358 237.268L63.5358 235.818L63.0034 235.884C62.7135 235.934 62.4377 235.714 62.4377 235.417C62.4371 235.305 62.4767 235.196 62.5493 235.111C62.6219 235.025 62.7228 234.968 62.8337 234.951L63.5358 234.864L63.5365 234.231L61.2144 234.232C60.0547 234.232 59.1044 233.282 59.1037 232.122L59.1037 226.946C59.1055 226.387 59.3284 225.851 59.7237 225.456C60.119 225.06 60.6546 224.837 61.2137 224.836L62.4377 224.835C62.4412 224.726 62.4825 224.621 62.5547 224.539C62.6268 224.457 62.7252 224.403 62.833 224.386L63.5358 224.3L63.5358 222.864L63.0034 222.93C62.7135 222.979 62.4377 222.76 62.4377 222.463C62.4371 222.351 62.4767 222.242 62.5493 222.157C62.6219 222.071 62.7228 222.014 62.8337 221.997L63.5358 221.91L63.5358 220.46L63.0034 220.526C62.7135 220.575 62.4377 220.356 62.4377 220.059C62.4371 219.947 62.4767 219.838 62.5493 219.752C62.6219 219.667 62.7228 219.61 62.8337 219.592L63.5358 219.505L63.5365 218.675L61.2144 218.676C60.0547 218.676 59.1044 217.726 59.1037 216.565L59.1037 211.389C59.1055 210.83 59.3284 210.295 59.7237 209.899C60.119 209.504 60.6546 209.281 61.2137 209.279L74.8347 209.273C75.113 209.271 75.389 209.324 75.6465 209.43C75.9041 209.535 76.1381 209.691 76.3349 209.888C76.5317 210.084 76.6874 210.318 76.793 210.576C76.8985 210.834 76.9518 211.11 76.9496 211.388ZM65.5348 218.675L65.5355 219.261L70.3339 218.671L65.5348 218.675ZM74.9492 211.372C74.9492 211.345 74.9388 211.32 74.9202 211.302C74.9017 211.283 74.8765 211.273 74.8502 211.273L74.8396 211.273L71.0092 211.275L71.0099 216.671L74.8389 216.669C74.8533 216.669 74.8674 216.666 74.8805 216.66C74.8936 216.654 74.9055 216.646 74.9153 216.635C74.9258 216.626 74.9342 216.614 74.94 216.601C74.9459 216.587 74.949 216.573 74.9492 216.559L74.9492 211.383L74.9492 211.372ZM70.0101 216.671L70.0101 211.276L66.0602 211.278L66.0602 216.674L70.0101 216.671ZM65.0603 211.278L61.2137 211.28C61.1993 211.281 61.1852 211.284 61.172 211.29C61.1589 211.295 61.1471 211.304 61.1373 211.314C61.1126 211.339 61.1034 211.367 61.1034 211.391L61.1034 216.567C61.1027 216.59 61.1119 216.618 61.1366 216.642C61.1464 216.653 61.1582 216.661 61.1713 216.667C61.1845 216.673 61.1986 216.676 61.213 216.676L65.061 216.675L65.0603 211.278ZM70.5355 224.395L66.9674 224.834L70.5348 224.831L70.5355 224.395ZM65.5355 234.23L65.5355 234.619L68.7147 234.229L65.5355 234.23ZM65.5355 220.215L65.5355 221.665L70.5355 221.05L70.5355 219.601L65.5355 220.215ZM70.5355 222.005L65.5355 222.62L65.5355 224.055L70.5355 223.441L70.5355 222.005ZM70.5355 234.959L65.5355 235.574L65.5355 237.023L70.5355 236.409L70.5355 234.959ZM70.5355 237.363L65.5355 237.978L65.5348 238.215C65.5347 238.346 65.5606 238.476 65.6108 238.598C65.6611 238.719 65.7348 238.83 65.8277 238.922C65.9206 239.015 66.031 239.089 66.1524 239.139C66.2738 239.19 66.404 239.215 66.5354 239.215L69.5349 239.214C69.8001 239.214 70.0544 239.109 70.2419 238.921C70.4294 238.734 70.5347 238.479 70.5348 238.214L70.5355 237.363ZM74.9492 226.928C74.9492 226.902 74.9388 226.877 74.9202 226.858C74.9017 226.839 74.8765 226.829 74.8502 226.829L74.8396 226.83L71.0092 226.832L71.0099 232.228L74.8389 232.226C74.8533 232.225 74.8674 232.222 74.8805 232.216C74.8936 232.21 74.9055 232.202 74.9153 232.192C74.9258 232.182 74.9342 232.17 74.94 232.157C74.9459 232.144 74.949 232.13 74.9492 232.115L74.9492 226.939L74.9492 226.928ZM70.0101 232.228L70.0101 226.833L66.0602 226.834L66.0602 232.231L70.0101 232.228ZM65.0603 226.834L61.2137 226.837C61.1993 226.837 61.1852 226.84 61.172 226.846C61.1589 226.852 61.1471 226.86 61.1373 226.871C61.1126 226.895 61.1034 226.923 61.1034 226.947L61.1034 232.123C61.1027 232.146 61.1119 232.174 61.1373 232.199C61.1471 232.21 61.1588 232.218 61.1718 232.224C61.1848 232.229 61.1988 232.232 61.213 232.233L65.061 232.231L65.0603 226.834Z" fill="black"/>
</g>
<path d="M425.876 255.549C425.681 255.601 425.478 255.614 425.278 255.588C425.078 255.562 424.886 255.496 424.711 255.396C424.537 255.295 424.384 255.161 424.261 255.001C424.138 254.841 424.049 254.658 423.997 254.464L420.067 239.799C419.962 239.407 420.017 238.988 420.22 238.636C420.423 238.283 420.758 238.026 421.151 237.921C421.544 237.815 421.962 237.87 422.315 238.073C422.667 238.276 422.924 238.611 423.03 239.004L426.959 253.668C427.012 253.863 427.025 254.066 426.999 254.266C426.973 254.466 426.908 254.658 426.807 254.833C426.707 255.008 426.573 255.161 426.413 255.284C426.253 255.406 426.07 255.496 425.876 255.549ZM420.475 261.802C419.373 261.17 418.408 260.326 417.635 259.318C416.862 258.311 416.296 257.16 415.97 255.932L412.235 241.993C412.129 241.605 412.101 241.199 412.153 240.799C412.206 240.399 412.337 240.014 412.539 239.665L414.139 236.895L411.345 235.282C410.766 234.947 410.312 234.432 410.053 233.816C410.025 233.751 410.002 233.685 409.984 233.617L409.423 231.522C409.212 230.737 409.323 229.9 409.729 229.196C410.136 228.492 410.805 227.978 411.591 227.767L416.492 226.455L411.079 206.286C411.027 206.091 411.014 205.888 411.04 205.689C411.066 205.489 411.132 205.296 411.232 205.122C411.333 204.947 411.467 204.794 411.627 204.672C411.787 204.549 411.969 204.459 412.164 204.407C412.359 204.355 412.562 204.341 412.761 204.368C412.961 204.394 413.154 204.459 413.328 204.56C413.503 204.661 413.656 204.795 413.778 204.955C413.901 205.115 413.991 205.297 414.043 205.492L419.449 225.668L424.348 224.357C424.737 224.253 425.143 224.226 425.542 224.279C425.942 224.331 426.327 224.462 426.676 224.663C427.024 224.865 427.33 225.133 427.575 225.453C427.821 225.772 428.001 226.137 428.105 226.526L428.666 228.621C428.684 228.688 428.698 228.757 428.707 228.826C428.787 229.487 428.651 230.155 428.321 230.733L426.708 233.527L429.48 235.127C429.829 235.328 430.135 235.596 430.38 235.915C430.625 236.234 430.804 236.599 430.908 236.987L434.642 250.928C435.136 252.774 435.072 254.726 434.457 256.535C433.843 258.345 432.706 259.932 431.19 261.096C429.673 262.26 427.846 262.948 425.939 263.074C424.032 263.199 422.13 262.757 420.475 261.802ZM422.008 259.146C423.138 259.799 424.437 260.101 425.739 260.016C427.042 259.931 428.29 259.461 429.325 258.667C430.361 257.872 431.138 256.788 431.557 255.553C431.977 254.317 432.021 252.984 431.683 251.723L427.947 237.784L425.175 236.183C424.47 235.776 423.956 235.106 423.745 234.321C423.535 233.535 423.645 232.698 424.052 231.993L425.654 229.217L425.145 227.312L412.386 230.73L412.897 232.636L415.672 234.238C416.377 234.645 416.891 235.315 417.101 236.101C417.312 236.887 417.202 237.724 416.795 238.428L415.195 241.199L418.932 255.139C419.154 255.977 419.54 256.763 420.068 257.451C420.597 258.138 421.256 258.715 422.008 259.146Z" fill="black"/>
<path d="M373.709 144.918L365.879 137.088C365.748 136.956 365.582 136.863 365.4 136.82C365.219 136.777 365.029 136.786 364.852 136.845C364.675 136.904 364.518 137.012 364.399 137.155C364.281 137.299 364.204 137.473 364.179 137.658L363.449 142.798L361.449 144.798L361.119 144.608C360.904 144.503 360.658 144.479 360.427 144.54C360.195 144.601 359.993 144.744 359.858 144.941C359.722 145.138 359.662 145.378 359.688 145.616C359.714 145.854 359.824 146.074 359.999 146.238L358.849 147.408L358.519 147.218C358.304 147.119 358.061 147.1 357.834 147.163C357.606 147.227 357.408 147.368 357.275 147.564C357.142 147.759 357.083 147.995 357.107 148.23C357.132 148.465 357.239 148.684 357.409 148.848L356.239 150.008L355.919 149.798C355.805 149.732 355.679 149.689 355.548 149.672C355.417 149.655 355.284 149.663 355.157 149.698C355.03 149.732 354.91 149.791 354.806 149.872C354.702 149.953 354.614 150.053 354.549 150.168C354.436 150.374 354.399 150.613 354.445 150.843C354.491 151.074 354.616 151.281 354.799 151.428L354.289 151.938C354.196 152.032 354.125 152.144 354.079 152.268C354.028 152.388 354.001 152.517 353.999 152.648V155.798C353.999 156.063 354.104 156.317 354.292 156.505C354.479 156.693 354.734 156.798 354.999 156.798H358.129C358.26 156.796 358.389 156.769 358.509 156.718C358.633 156.672 358.745 156.601 358.839 156.508L360.539 154.798L360.869 154.988C360.983 155.054 361.108 155.098 361.238 155.116C361.369 155.134 361.501 155.126 361.629 155.092C361.756 155.059 361.875 155.001 361.98 154.921C362.085 154.841 362.173 154.742 362.239 154.628C362.356 154.422 362.396 154.181 362.352 153.949C362.308 153.716 362.183 153.507 361.999 153.358L363.169 152.198L363.499 152.388C363.648 152.473 363.817 152.517 363.989 152.518C364.18 152.501 364.363 152.429 364.514 152.31C364.666 152.192 364.78 152.033 364.843 151.851C364.907 151.67 364.916 151.474 364.871 151.287C364.826 151.1 364.728 150.93 364.589 150.798L365.759 149.638L366.089 149.828C366.238 149.913 366.407 149.957 366.579 149.958C366.783 149.954 366.981 149.888 367.147 149.769C367.312 149.649 367.437 149.481 367.505 149.289C367.572 149.096 367.579 148.887 367.525 148.69C367.47 148.494 367.356 148.318 367.199 148.188L367.989 147.398L373.139 146.668C373.324 146.642 373.498 146.564 373.641 146.444C373.784 146.324 373.891 146.166 373.949 145.988C374.018 145.806 374.031 145.607 373.989 145.417C373.946 145.227 373.849 145.054 373.709 144.918ZM357.719 154.798H355.999V153.078L356.569 152.508L358.749 153.798L357.719 154.798ZM360.209 152.298L357.999 151.048L359.139 149.908L361.309 151.158L360.209 152.298ZM362.819 149.698L360.639 148.438L361.789 147.298L363.999 148.548L362.819 149.698ZM365.429 147.088L363.249 145.798L364.389 144.658L366.109 146.378L365.429 147.088ZM367.879 145.348L365.449 142.918L365.879 139.918L370.879 144.918L367.879 145.348Z" fill="black"/>
<path d="M99.999 163.793V35.793C99.999 22.793 112.999 22.793 112.999 22.793M99.999 44.4596H138.999M99.999 61.793H138.999M99.999 79.1263H138.999M99.999 96.4596H138.999M151.999 107.293V37.9596C151.999 24.9596 164.999 24.9596 164.999 24.9596" stroke="black" stroke-width="4" stroke-linecap="round" stroke-linejoin="round"/>
<path d="M300.132 266.793C300.466 273.793 296.732 287.793 279.132 287.793C261.532 287.793 185.132 287.793 149.132 287.793C144.132 288.626 134.132 286.793 134.132 272.793C134.132 262.992 134.132 221.086 134.132 183.793M297.132 230.293C297.132 206.96 297.132 157.093 297.132 144.293C297.132 131.492 285.132 126.959 279.132 126.293C241.132 126.293 161.932 126.293 149.132 126.293C136.332 126.293 133.799 136.293 134.132 141.293C134.132 152.689 134.132 167.818 134.132 183.793M134.132 183.793H293.632" stroke="black" stroke-width="12" stroke-linecap="round" stroke-linejoin="round"/>
<circle cx="162.132" cy="155.793" r="5" fill="black"/>
<circle cx="191.132" cy="155.793" r="5" fill="black"/>
<circle cx="220.132" cy="155.793" r="5" fill="black"/>
<path d="M169.5 220.5C175 212.666 189.1 201.7 201.5 220.5" stroke="black" stroke-width="10" stroke-linecap="round" stroke-linejoin="round"/>
<path d="M230 220.5C235.5 212.666 249.6 201.7 262 220.5" stroke="black" stroke-width="10" stroke-linecap="round" stroke-linejoin="round"/>
<path d="M214 247H237.5C237.167 254.5 232 269.5 214 269.5" stroke="black" stroke-width="5" stroke-linecap="round" stroke-linejoin="round"/>
<path d="M215.5 247H192C192.333 254.5 197.5 269.5 215.5 269.5" stroke="black" stroke-width="5" stroke-linecap="round" stroke-linejoin="round"/>
<g clip-path="url(#clip3_627_15518)">
<path d="M211.75 98.9746C211.98 98.5812 212.308 98.2548 212.703 98.0279C213.098 97.801 213.545 97.6816 214 97.6816C214.456 97.6816 214.903 97.801 215.298 98.0279C215.693 98.2548 216.021 98.5812 216.25 98.9746L222.073 108.97L233.382 111.42C233.826 111.517 234.238 111.729 234.576 112.034C234.913 112.339 235.165 112.728 235.306 113.161C235.446 113.594 235.471 114.056 235.377 114.502C235.283 114.947 235.074 115.36 234.771 115.7L227.063 124.327L228.23 135.837C228.276 136.29 228.202 136.748 228.016 137.164C227.83 137.579 227.538 137.939 227.169 138.207C226.801 138.475 226.368 138.641 225.915 138.69C225.462 138.738 225.005 138.667 224.588 138.483L214 133.816L203.413 138.483C202.996 138.667 202.538 138.738 202.085 138.69C201.632 138.641 201.2 138.475 200.831 138.207C200.463 137.939 200.171 137.579 199.985 137.164C199.799 136.748 199.725 136.29 199.771 135.837L200.938 124.327L193.23 115.702C192.926 115.362 192.717 114.949 192.623 114.503C192.528 114.057 192.553 113.595 192.694 113.162C192.834 112.728 193.086 112.34 193.424 112.034C193.762 111.728 194.174 111.517 194.619 111.42L205.927 108.97L211.75 98.9746Z" fill="#FFD233"/>
</g>
<defs>
<clipPath id="clip0_627_15518">
<rect width="45.1031" height="45.1031" fill="white" transform="translate(395.673 100.033) rotate(-105)"/>
</clipPath>
<clipPath id="clip1_627_15518">
<rect width="63" height="63" fill="white" transform="translate(277.513) rotate(15)"/>
</clipPath>
<clipPath id="clip2_627_15518">
<rect width="32" height="32" fill="white" transform="translate(87.5947 211.479) rotate(105)"/>
</clipPath>
<clipPath id="clip3_627_15518">
<rect width="50" height="50" fill="white" transform="translate(189 93)"/>
</clipPath>
</defs>
</svg>
